<?xml version="1.0" encoding="UTF-8"?>
<svg width="90px" height="83px" viewBox="0 0 90 83" version="1.1" xmlns="http://www.w3.org/2000/svg" xmlns:xlink="http://www.w3.org/1999/xlink">
    <!-- Generator: Sketch 50.2 (55047) - http://www.bohemiancoding.com/sketch -->
    <title>Group</title>
    <desc>Created with Sketch.</desc>
    <defs></defs>
    <g id="Round-2" stroke="none" stroke-width="1" fill="none" fill-rule="evenodd">
        <g id="1-Home" transform="translate(-273.000000, -1826.000000)" fill="#FF8820">
            <g id="Group-2" transform="translate(190.000000, 1783.000000)">
                <g id="Group" transform="translate(83.000000, 43.000000)">
                    <polygon id="Fill-1" points="0 83 90 83 90 74 0 74"></polygon>
                    <polygon id="Fill-2" points="4 72 85 72 85 67 4 67"></polygon>
                    <polygon id="Fill-3" points="4 27 85 27 85 22 4 22"></polygon>
                    <polygon id="Fill-4" points="11 63 22 63 22 28 11 28"></polygon>
                    <polygon id="Fill-5" points="30 63 41 63 41 28 30 28"></polygon>
                    <polygon id="Fill-6" points="48 63 59 63 59 28 48 28"></polygon>
                    <polygon id="Fill-7" points="67 63 78 63 78 28 67 28"></polygon>
                    <polygon id="Fill-8" points="44.4753138 0 6 17 85 17"></polygon>
                </g>
            </g>
        </g>
    </g>
</svg>