<?xml version="1.0" encoding="utf-8"?>
<!-- Generator: Adobe Illustrator 21.0.0, SVG Export Plug-In . SVG Version: 6.00 Build 0)  -->
<svg version="1.1" id="Layer_1" xmlns="http://www.w3.org/2000/svg" xmlns:xlink="http://www.w3.org/1999/xlink" x="0px" y="0px"
	 viewBox="0 0 200 200" style="enable-background:new 0 0 200 200;" xml:space="preserve">
<style type="text/css">
	.st0{fill:none;stroke:#FFD200;stroke-width:3;stroke-miterlimit:10;}
	.st1{fill:#FFFFFF;}
</style>
<g>
	<circle class="st0" cx="100.5" cy="100.5" r="96"/>
	<g>
		<g id="BDjU7j_1_">
			<g>
				<g>
					<path class="st1" d="M33,99c0.3-0.1,0.8-0.2,0.8-0.4c-0.1-3.3,1.9-5.9,3.2-8.7c0.9-2,1.9-2.7,3.8-1.9c2.6,1.2,5.1,0.7,7.7,0.9
						c0.8-0.8,1.8-1.6,2.4-2.5c1.3-1.9,3.1-3.5,1.2-6.3c-1-1.5-0.9-3.9-1.3-5.7c4.9-2.5,9.4-5,14.8-5.6c0.6,1.7,1.1,3.5,2,5.1
						c0.6,1.1,1.8,1.9,2.8,2.9c1.1,0,2.2,0,3.4,0c4.4-0.1,5.7-1,7.1-5.4c0.9-2.8,1.3-2.9,4.1-2.1c3.7,1.2,7.4,2.2,11,5.3
						c0.7,1.5-0.6,3.2-1.4,5.1c-1.6,3.6-0.3,7,3.3,8.5c2.4,1,5,1.3,7.4-0.2c2.9-1.8,3.1-1.8,4.7,1.1c0.4,0.7,0.8,1.3,1.2,2
						c-5.5,5.5-10.8,10.8-16.4,16.4c-3.5-9.7-6.2-14-11.2-16.3c-4.4-2-9.3-3.5-14-2.2c-10.6,3-17.9,11.7-16.6,23
						c0.5,4.7,2.5,9.1,6,12.4c3.5,3.2,7.6,5.6,12.7,5.6c-0.1,0.4-0.1,0.7-0.2,0.8c-3.8,2.8-4.5,7.1-5.6,11.2c-0.7,2.7-1.5,5.3-2.2,8
						c-4.5-0.4-7.8-2.7-11.5-4.4c-1.3-0.6-1.7-2-1.1-3.4c0.2-0.6,0.6-1.1,0.8-1.7c0.3-1.1,1-2.5,0.6-3.4c-0.6-1.7-0.8-3.8-2.7-4.9
						c-0.6-0.3-0.9-0.9-1.6-1.7c-3.2,0.4-6.5,0.9-9.8,1.3c-0.7-2.2-2.3-3.7-3-5.8c-0.6-1.7-0.6-3.9-2.4-5.2c0-1,0-2,0-3
						c1.8-0.9,3.5-1.8,5.3-2.8c1.2-0.7,2.7-2.6,2.7-3.7c0.1-1.8,0-3.5,0-4.5c-2-3.8-5.6-4-8-6C33,100.3,33,99.7,33,99z"/>
				</g>
			</g>
		</g>
		<path class="st1" d="M67.3,159.1l19-5.9l50.5-54l16.4-17.5l-5.4-5.1l-2.9-2.7l-6.1-5.7l-5.7,6.1l-2.7,2.9l-2.7,2.9L109,100.1
			l-37.1,39.7L67.3,159.1z M67.3,159.1"/>
		<path class="st1" d="M153.6,52.5l-10.5,11.2l10.6,10l2.9,2.7l0.9,0.8l0.8-0.9l2.7-2.9l7-7.5L153.6,52.5z M153.6,52.5"/>
	</g>
</g>
</svg>
