<?xml version="1.0" encoding="utf-8"?>
<!-- Generator: Adobe Illustrator 21.0.0, SVG Export Plug-In . SVG Version: 6.00 Build 0)  -->
<svg version="1.1" id="Layer_1" xmlns="http://www.w3.org/2000/svg" xmlns:xlink="http://www.w3.org/1999/xlink" x="0px" y="0px"
	 viewBox="0 0 200 200" style="enable-background:new 0 0 200 200;" xml:space="preserve">
<style type="text/css">
	.st0{fill:none;stroke:#FFD200;stroke-width:3;stroke-miterlimit:10;}
	.st1{fill:#FFFFFF;}
</style>
<g>
	<circle class="st0" cx="100.5" cy="100.5" r="96"/>
	<g id="X80zyV_1_">
		<g>
			<g>
				<path class="st1" d="M147,53c-0.3,0.1-0.8,0.2-0.8,0.4c0,4.6-2.2,8.9-2.2,13.6c0,0.7-0.8,1.3-1.2,1.9c-1.3-1.3-2.5-2.6-4-4.1
					c-1.5,1.5-2.6,2.8-3.9,3.9c-6.8,5.6-12.8,11.9-19,18c-6.1,6.1-12.2,12.2-18.3,18.4c-2-2-3.9-4.1-6.1-6c-2-1.8-4.3-3.4-6.7-5.3
					c-8.1,8.1-16.3,16.3-24.2,24.2c-2.9-2.9-5.5-5.5-7.8-7.8c10.6-10.6,21.6-21.6,33-33c3.6,3.2,7.7,6.8,12,10.6
					c4.8-4.8,9.7-9.9,14.8-14.8c5.8-5.6,11.8-11,17.8-16.5c-0.9-2.3-3-3.3-4.3-5.2c7-1,13.9-3,21-3.3C147,49.7,147,51.3,147,53z"/>
				<path class="st1" d="M120,151c0-18.6,0-37.1,0-56c9.1,0,18.1,0,27,0c0,18.7,0,37.3,0,56C138,151,129,151,120,151z"/>
				<path class="st1" d="M86,151c-1.2-1.3-1-3-1-4.6c0-11.3,0-22.6,0-34.2c8.9,0,17.8,0,27,0c0,12.9,0,25.8,0,38.8
					C103.3,151,94.7,151,86,151z"/>
				<path class="st1" d="M50,125c8.9,0,17.8,0,27,0c0,8.8,0,17.4,0,26c-9,0-18,0-27,0C50,142.3,50,133.7,50,125z"/>
			</g>
		</g>
	</g>
</g>
</svg>
