<?xml version="1.0" encoding="utf-8"?>
<!-- Generator: Adobe Illustrator 21.0.0, SVG Export Plug-In . SVG Version: 6.00 Build 0)  -->
<svg version="1.1" id="Layer_1" xmlns="http://www.w3.org/2000/svg" xmlns:xlink="http://www.w3.org/1999/xlink" x="0px" y="0px"
	 viewBox="0 0 200 200" style="enable-background:new 0 0 200 200;" xml:space="preserve">
<style type="text/css">
	.st0{fill:#FFFFFF;}
	.st1{fill:none;stroke:#FFD200;stroke-width:3;stroke-miterlimit:10;}
</style>
<g>
	<g>
		<g id="JKZcXW_1_">
			<g>
				<g>
					<path class="st0" d="M159.3,136.5C159.2,136.5,159.2,136.5,159.3,136.5c-0.3,0.8-0.7,1.4-1.1,2.1c-0.2,0.4-0.6,0.5-0.9,0.8
						c-0.9,0.7-1.9,1-3,1c-36.7,0-73.4,0-110,0c-1.1,0-1.9-0.4-2.8-0.9c-0.3-0.1-0.6-0.4-0.8-0.6c-0.4-0.4-0.7-0.8-0.9-1.3
						c-0.2-0.4-0.3-0.8-0.4-1.2c-0.1-0.3,0-0.6,0-0.9c0-22.5,0-45,0-67.5c0-0.7,0.1-1.5,0-2.2c-0.1-0.8,0.3-1.6,0.6-2.2
						c0.4-0.9,1.3-1.5,2.1-2c0.3-0.2,1.4-0.4,1.7-0.5c0.1,0,0.1,0,0.2,0c22.8,0,45.6,0,68.4,0c0.2,0,0.3,0,0.6,0
						c-1.7,2.4-3.3,4.7-5,7.1c-20.4,0-40.9,0-61.4,0c0,19.2,0,38.4,0,57.6c35.1,0,70.2,0,105.3,0c0.1-0.8,0.2-54.6,0.1-57.7
						c-6.3,0-12.6,0-19,0c0.4-0.4,0.8-0.7,1.1-1.1c0.3-0.3,0.4-0.8,0.9-0.9c0.1-0.5,0.6-0.7,0.9-1.1c0.3-0.3,0.5-0.7,0.9-1
						c0.4-0.3,0.6-0.7,0.9-1c0.3-0.3,0.6-0.6,0.9-1c0.3-0.3,0.6-0.7,0.8-1.1c2.6,0,5.1,0,7.7,0c2.5,0,5,0,7.6,0
						c0.7,0,1.4,0.2,2.1,0.6c0.7,0.5,1.4,0.9,1.8,1.7c0.2,0.5,0.5,0.9,0.6,1.5c0,0,0.1,0,0.2,0.1
						C159.3,88.8,159.3,112.7,159.3,136.5z"/>
					<path class="st0" d="M86.8,145.1c8.3,0,16.6,0,24.9,0c0,0.5,0.3,1,0.2,1.6c0,0.5,0.1,1,0.2,1.5c0.2,0.9,0.2,1.8,0.5,2.6
						c0.4,1.2,1.1,2.2,2.2,3c0.9,0.7,1.6,1.5,2.4,2.2c0.1,0.1,0.2,0.4,0.2,0.5c-0.1,0.2-0.2,0.4-0.5,0.3c-0.2,0-0.3,0-0.5,0
						c-11.5,0-22.9,0-34.4,0c-0.2,0-0.5,0-0.7,0c-0.3,0-0.5-0.5-0.3-0.7c0.6-0.6,1.2-1.2,1.9-1.7c1.1-0.8,2.2-1.8,2.7-3.1
						c0.2-0.4,0.3-0.8,0.4-1.3c0.3-1,0.2-2,0.6-3c0-0.1,0-0.2,0-0.3C86.7,146.3,86.7,145.7,86.8,145.1z"/>
				</g>
			</g>
		</g>
		<path class="st0" d="M91.6,110.2l10.4-4.9l24.8-34.9l8-11.3l-3.5-2.5l-1.8-1.3l-3.9-2.8l-2.8,3.9l-1.3,1.8l-1.3,1.8l-9.2,13
			L92.8,98.8L91.6,110.2z M91.6,110.2"/>
		<path class="st0" d="M132.8,42.4l-5.1,7.2l6.9,4.9l1.8,1.3l0.6,0.4l0.4-0.6l1.3-1.8l3.4-4.8L132.8,42.4z M132.8,42.4"/>
	</g>
	<circle class="st1" cx="99.5" cy="100.5" r="96"/>
</g>
</svg>
