<?xml version="1.0" encoding="iso-8859-1"?>
<!-- Generator: Adobe Illustrator 17.1.0, SVG Export Plug-In . SVG Version: 6.00 Build 0)  -->
<!DOCTYPE svg PUBLIC "-//W3C//DTD SVG 1.1//EN" "http://www.w3.org/Graphics/SVG/1.1/DTD/svg11.dtd">
<svg version="1.1" id="Layer_1" xmlns="http://www.w3.org/2000/svg" xmlns:xlink="http://www.w3.org/1999/xlink" x="0px" y="0px"
	 viewBox="276.504 378.453 109.431 32.463" style="enable-background:new 276.504 378.453 109.431 32.463;" xml:space="preserve">
<g>
	<g>
		<g>
			<path style="fill:#FFFFFF;" d="M306.535,392.048c-0.125-1.159-0.499-2.362-1.122-3.609c-0.2-0.374-0.455-0.748-0.767-1.122
				c-0.312-0.374-0.705-0.717-1.178-1.028c-0.474-0.312-1.01-0.567-1.608-0.767c-0.598-0.199-1.272-0.299-2.02-0.299
				c-1.023,0-1.982,0.2-2.88,0.598c-0.898,0.4-1.677,1.01-2.337,1.833c-0.661,0.823-1.185,1.857-1.571,3.104
				c-0.387,1.247-0.58,2.718-0.58,4.413c0,1.197,0.124,2.362,0.374,3.497c0.249,1.135,0.66,2.139,1.234,3.011
				c0.573,0.873,1.328,1.571,2.263,2.094s2.088,0.785,3.46,0.785c1.346,0,2.444-0.237,3.291-0.711
				c0.847-0.473,1.521-1.034,2.02-1.683c0.498-0.648,0.853-1.296,1.066-1.945c0.212-0.649,0.355-1.147,0.43-1.496l-3.441-0.486
				c-0.075,0.325-0.168,0.686-0.28,1.085c-0.112,0.399-0.287,0.773-0.524,1.122c-0.237,0.349-0.549,0.643-0.935,0.879
				c-0.387,0.237-0.892,0.355-1.515,0.355c-0.898,0-1.584-0.224-2.057-0.673c-0.474-0.449-0.823-0.997-1.047-1.646
				c-0.224-0.649-0.355-1.328-0.393-2.038s-0.056-1.328-0.056-1.851h10.397C306.735,394.348,306.66,393.207,306.535,392.048z
				 M296.438,392.889c0.049-0.623,0.137-1.228,0.262-1.814c0.125-0.586,0.318-1.103,0.58-1.552s0.592-0.81,0.991-1.085
				c0.399-0.274,0.885-0.411,1.459-0.411c0.174,0,0.399,0.031,0.673,0.094c0.275,0.062,0.542,0.174,0.804,0.337
				c0.262,0.162,0.518,0.387,0.767,0.673c0.249,0.287,0.449,0.667,0.598,1.141c0.174,0.549,0.275,1.035,0.299,1.459
				c0.025,0.424,0.037,0.811,0.037,1.159H296.438z M290.08,401.08c-0.673-0.324-1.44-0.535-2.3-0.636
				c-0.86-0.099-1.739-0.174-2.637-0.224c-0.948-0.049-1.72-0.093-2.319-0.131c-0.598-0.037-1.073-0.112-1.421-0.224
				c-0.349-0.112-0.592-0.262-0.729-0.449c-0.138-0.187-0.206-0.455-0.206-0.804c0-0.524,0.162-0.898,0.486-1.122
				c0.324-0.224,0.623-0.399,0.898-0.524c0.324,0.099,0.666,0.181,1.028,0.243c0.361,0.063,0.804,0.094,1.328,0.094
				c1.097,0,2.044-0.174,2.842-0.524c0.797-0.348,1.459-0.804,1.982-1.365c0.524-0.561,0.916-1.19,1.178-1.889
				c0.262-0.698,0.393-1.408,0.393-2.132c0-1.471-0.474-2.792-1.421-3.964c0.15-0.773,0.387-1.302,0.711-1.589
				c0.324-0.286,0.761-0.43,1.309-0.43c0.15,0,0.286,0.007,0.411,0.019c0.124,0.013,0.274,0.043,0.449,0.093l0.037-2.805
				c-0.2-0.025-0.387-0.049-0.561-0.075c-0.175-0.025-0.387-0.037-0.636-0.037c-0.699,0-1.26,0.112-1.683,0.337
				c-0.424,0.224-0.748,0.505-0.972,0.841c-0.224,0.337-0.387,0.705-0.486,1.103c-0.1,0.399-0.187,0.773-0.262,1.122
				c-0.399-0.174-0.867-0.349-1.402-0.524c-0.536-0.174-1.24-0.262-2.113-0.262c-0.948,0-1.814,0.144-2.599,0.43
				c-0.785,0.287-1.465,0.692-2.038,1.216c-0.574,0.524-1.023,1.159-1.346,1.907c-0.325,0.748-0.486,1.584-0.486,2.506
				c0,0.748,0.081,1.39,0.243,1.926c0.161,0.536,0.367,0.979,0.617,1.328c0.249,0.349,0.511,0.643,0.785,0.879
				c0.274,0.237,0.524,0.43,0.748,0.58c-0.2,0.1-0.456,0.243-0.767,0.43c-0.312,0.187-0.611,0.424-0.898,0.711
				c-0.287,0.287-0.536,0.636-0.748,1.047c-0.212,0.411-0.318,0.904-0.318,1.477c0,0.474,0.075,0.879,0.224,1.215
				s0.324,0.624,0.524,0.86c0.199,0.237,0.417,0.437,0.654,0.598c0.236,0.162,0.442,0.293,0.617,0.393
				c-0.2,0.075-0.456,0.181-0.767,0.318c-0.312,0.138-0.611,0.337-0.898,0.598c-0.287,0.262-0.53,0.604-0.729,1.029
				c-0.2,0.423-0.299,0.96-0.299,1.608c0,1.047,0.262,1.876,0.785,2.487c0.524,0.61,1.171,1.072,1.945,1.384
				c0.773,0.311,1.59,0.517,2.45,0.617c0.86,0.099,1.614,0.15,2.263,0.15c0.847,0,1.764-0.069,2.749-0.206
				c0.984-0.138,1.895-0.411,2.73-0.823c0.835-0.411,1.527-0.991,2.076-1.739c0.548-0.748,0.823-1.733,0.823-2.955
				c0-1.147-0.206-2.038-0.617-2.674C291.296,401.884,290.754,401.403,290.08,401.08z M281.534,390.121
				c0.062-0.423,0.193-0.81,0.393-1.159c0.199-0.349,0.473-0.642,0.823-0.879c0.349-0.237,0.823-0.355,1.421-0.355
				s1.06,0.15,1.384,0.449c0.324,0.299,0.573,0.649,0.748,1.047c0.174,0.399,0.28,0.798,0.318,1.197
				c0.037,0.4,0.056,0.711,0.056,0.935c0,0.125-0.013,0.374-0.037,0.748c-0.025,0.374-0.119,0.773-0.28,1.197
				c-0.162,0.424-0.424,0.798-0.785,1.122c-0.361,0.325-0.867,0.486-1.515,0.486c-0.649,0-1.153-0.156-1.515-0.467
				c-0.362-0.312-0.624-0.673-0.785-1.085c-0.162-0.411-0.256-0.81-0.28-1.197c-0.026-0.386-0.037-0.654-0.037-0.804
				C281.441,390.957,281.472,390.546,281.534,390.121z M288.323,407.082c-0.299,0.337-0.673,0.592-1.122,0.767
				c-0.449,0.174-0.929,0.286-1.44,0.337c-0.512,0.049-0.966,0.075-1.365,0.075c-1.421,0-2.519-0.181-3.291-0.542
				c-0.773-0.362-1.159-1.041-1.159-2.038c0-0.374,0.056-0.692,0.168-0.954c0.112-0.262,0.255-0.486,0.43-0.673
				c0.174-0.187,0.355-0.337,0.542-0.449c0.187-0.112,0.343-0.206,0.467-0.28c0.199,0,0.535,0.013,1.01,0.037
				c0.473,0.025,0.978,0.05,1.515,0.075c0.535,0.025,1.041,0.05,1.515,0.075c0.473,0.025,0.797,0.05,0.972,0.075
				c0.224,0.025,0.462,0.069,0.711,0.131c0.249,0.063,0.486,0.175,0.711,0.337c0.224,0.161,0.411,0.374,0.561,0.636
				c0.15,0.262,0.224,0.604,0.224,1.029C288.771,406.29,288.622,406.746,288.323,407.082z M316.278,401.304
				c-0.237,0.025-0.53,0.037-0.879,0.037c-0.649,0-1.141-0.081-1.477-0.243c-0.337-0.161-0.586-0.417-0.748-0.767
				c-0.162-0.349-0.256-0.81-0.28-1.384c-0.026-0.573-0.037-1.259-0.037-2.057v-8.153h3.516v-3.067h-3.516v-5.124l-3.441,0.299
				l-0.187,4.825h-2.506v3.067h2.394v8.415c0,1.023,0.025,1.982,0.075,2.88c0.049,0.898,0.23,1.683,0.542,2.356
				c0.311,0.673,0.81,1.204,1.496,1.59c0.685,0.386,1.652,0.58,2.899,0.58c0.623,0,1.159-0.037,1.608-0.112
				c0.449-0.075,0.86-0.15,1.234-0.224v-2.992C316.746,401.254,316.514,401.279,316.278,401.304z"/>
		</g>
	</g>
	<path style="fill:#FFCC00;" d="M322.543,385.671c0-0.729,0.012-1.352,0.037-1.868c0.025-0.515,0.118-0.943,0.28-1.283
		c0.161-0.339,0.411-0.592,0.748-0.755c0.337-0.164,0.804-0.246,1.402-0.246c0.324,0,0.598,0.013,0.823,0.037
		c0.224,0.025,0.424,0.062,0.598,0.112v-2.992c-0.299-0.05-0.611-0.099-0.935-0.15c-0.325-0.049-0.761-0.075-1.309-0.075
		c-1.322,0-2.338,0.218-3.048,0.654c-0.711,0.437-1.234,0.998-1.571,1.683c-0.337,0.686-0.536,1.459-0.598,2.319
		c-0.063,0.86-0.106,1.714-0.131,2.562h-2.431v3.067h2.431v15.371h3.703v-15.371h3.329v-3.067H322.543z"/>
	<path style="fill:#FFCC00;" d="M326.806,385.671v11.781c0,0.773,0.025,1.578,0.075,2.412c0.049,0.836,0.218,1.602,0.505,2.3
		c0.286,0.699,0.741,1.272,1.365,1.72c0.623,0.449,1.521,0.673,2.693,0.673c0.773,0,1.414-0.106,1.926-0.318
		c0.511-0.212,0.947-0.473,1.309-0.785c0.361-0.311,0.648-0.654,0.86-1.028c0.212-0.374,0.405-0.735,0.58-1.085v2.768h3.516v-18.438
		h-3.815v8.864c0,0.848-0.019,1.69-0.056,2.525c-0.037,0.836-0.15,1.578-0.337,2.225c-0.187,0.649-0.486,1.178-0.898,1.59
		s-1.004,0.617-1.776,0.617c-0.524,0-0.935-0.093-1.234-0.28c-0.299-0.187-0.512-0.455-0.636-0.804
		c-0.125-0.349-0.2-0.779-0.224-1.29c-0.026-0.511-0.037-1.091-0.037-1.739v-11.706L326.806,385.671L326.806,385.671z"/>
	<path style="fill:#FFCC00;" d="M354.294,389.972c-0.075-0.299-0.212-0.717-0.411-1.253c-0.2-0.535-0.518-1.066-0.954-1.589
		c-0.436-0.524-1.029-0.972-1.776-1.346c-0.748-0.374-1.696-0.561-2.842-0.561c-0.972,0-1.839,0.162-2.599,0.486
		c-0.761,0.325-1.402,0.748-1.926,1.272c-0.524,0.524-0.923,1.128-1.197,1.814c-0.275,0.686-0.411,1.391-0.411,2.113
		c0,0.948,0.18,1.733,0.542,2.356c0.361,0.624,0.829,1.141,1.402,1.552c0.573,0.411,1.197,0.748,1.87,1.01
		c0.673,0.262,1.334,0.493,1.982,0.692c0.399,0.125,0.791,0.256,1.178,0.393c0.386,0.138,0.735,0.312,1.047,0.524
		c0.311,0.212,0.561,0.467,0.748,0.767c0.187,0.299,0.28,0.673,0.28,1.122c0,0.175-0.031,0.399-0.093,0.673
		c-0.063,0.275-0.2,0.542-0.411,0.804c-0.212,0.262-0.505,0.486-0.879,0.673c-0.374,0.187-0.873,0.28-1.496,0.28
		c-0.748,0-1.346-0.124-1.795-0.374c-0.449-0.249-0.798-0.548-1.047-0.898c-0.25-0.349-0.424-0.698-0.524-1.047
		c-0.1-0.348-0.162-0.636-0.187-0.86l-3.254,0.636c0.075,0.349,0.193,0.823,0.355,1.421c0.161,0.598,0.473,1.184,0.935,1.758
		c0.462,0.574,1.115,1.079,1.963,1.515c0.847,0.436,1.982,0.655,3.403,0.655c1.147,0,2.151-0.168,3.011-0.505
		c0.86-0.337,1.564-0.785,2.113-1.346c0.548-0.561,0.96-1.184,1.234-1.87c0.275-0.685,0.411-1.39,0.411-2.113
		c0-0.922-0.181-1.702-0.542-2.338c-0.362-0.636-0.817-1.159-1.365-1.571c-0.549-0.411-1.141-0.741-1.776-0.991
		c-0.636-0.249-1.228-0.461-1.776-0.636c-0.649-0.199-1.204-0.386-1.664-0.561c-0.462-0.174-0.841-0.361-1.141-0.561
		c-0.299-0.199-0.524-0.436-0.673-0.711c-0.15-0.274-0.224-0.623-0.224-1.047c0-0.598,0.199-1.128,0.598-1.59
		c0.399-0.461,0.997-0.692,1.795-0.692c0.548,0,1.01,0.106,1.384,0.318s0.673,0.467,0.898,0.767
		c0.224,0.299,0.399,0.604,0.524,0.916c0.124,0.312,0.224,0.567,0.299,0.767L354.294,389.972z"/>
	<path style="fill:#FFCC00;" d="M370.302,395.47c-0.026-1.122-0.1-2.263-0.224-3.422c-0.125-1.159-0.499-2.362-1.122-3.609
		c-0.2-0.374-0.456-0.748-0.767-1.122c-0.312-0.374-0.705-0.717-1.178-1.028c-0.474-0.312-1.01-0.567-1.608-0.767
		c-0.598-0.2-1.272-0.299-2.02-0.299c-1.023,0-1.982,0.2-2.88,0.598c-0.898,0.4-1.677,1.01-2.338,1.833
		c-0.66,0.823-1.184,1.857-1.571,3.104c-0.387,1.247-0.58,2.718-0.58,4.413c0,1.197,0.124,2.363,0.374,3.497
		c0.249,1.135,0.66,2.139,1.234,3.011c0.573,0.873,1.328,1.571,2.263,2.094c0.935,0.524,2.088,0.785,3.46,0.785
		c1.346,0,2.443-0.237,3.291-0.711c0.847-0.473,1.521-1.034,2.02-1.683c0.498-0.648,0.853-1.296,1.066-1.945
		c0.212-0.649,0.355-1.147,0.43-1.496l-3.441-0.486c-0.075,0.325-0.168,0.686-0.28,1.085s-0.286,0.773-0.524,1.122
		c-0.237,0.349-0.549,0.643-0.935,0.879c-0.387,0.237-0.892,0.355-1.515,0.355c-0.898,0-1.584-0.224-2.057-0.673
		c-0.473-0.449-0.823-0.997-1.047-1.646c-0.224-0.649-0.355-1.328-0.393-2.038c-0.037-0.711-0.056-1.328-0.056-1.851H370.302z
		 M359.979,392.889c0.049-0.623,0.137-1.228,0.262-1.814c0.125-0.586,0.318-1.103,0.58-1.552s0.592-0.81,0.991-1.085
		c0.399-0.274,0.885-0.411,1.459-0.411c0.174,0,0.399,0.031,0.673,0.094c0.274,0.063,0.542,0.174,0.804,0.337
		s0.517,0.387,0.767,0.673c0.249,0.287,0.449,0.667,0.598,1.141c0.174,0.549,0.274,1.035,0.299,1.459
		c0.025,0.424,0.037,0.811,0.037,1.159H359.979z"/>
	<path style="fill:#FFCC00;" d="M382.157,379.163v8.639c-0.125-0.199-0.275-0.442-0.449-0.729c-0.175-0.286-0.424-0.561-0.748-0.823
		c-0.325-0.262-0.729-0.479-1.216-0.654c-0.486-0.174-1.091-0.262-1.814-0.262c-0.923,0-1.771,0.206-2.543,0.617
		c-0.773,0.411-1.44,1.023-2.001,1.833s-0.997,1.821-1.309,3.029c-0.312,1.21-0.467,2.599-0.467,4.17
		c0,0.598,0.031,1.247,0.093,1.945c0.062,0.698,0.18,1.397,0.355,2.094c0.174,0.698,0.405,1.371,0.692,2.02
		c0.286,0.649,0.66,1.228,1.122,1.739c0.461,0.512,1.01,0.916,1.646,1.215c0.636,0.299,1.39,0.449,2.263,0.449
		c0.798,0,1.465-0.112,2.001-0.337c0.535-0.224,0.978-0.498,1.328-0.823c0.349-0.324,0.623-0.667,0.823-1.028
		c0.199-0.361,0.361-0.679,0.486-0.954v2.805h3.516v-24.946L382.157,379.163L382.157,379.163z M382.157,396.442
		c0,1.023-0.069,1.795-0.206,2.319c-0.137,0.524-0.331,0.972-0.58,1.346c-0.275,0.424-0.624,0.773-1.047,1.047
		c-0.424,0.275-0.91,0.411-1.459,0.411c-0.723,0-1.297-0.212-1.72-0.636c-0.424-0.423-0.748-0.972-0.972-1.646
		s-0.368-1.414-0.43-2.225c-0.063-0.81-0.093-1.614-0.093-2.412c0-0.748,0.031-1.502,0.093-2.263
		c0.062-0.761,0.206-1.459,0.43-2.094c0.224-0.636,0.548-1.153,0.972-1.552c0.423-0.399,0.984-0.598,1.683-0.598
		c0.648,0,1.184,0.181,1.608,0.542c0.424,0.362,0.735,0.692,0.935,0.991c0.399,0.598,0.629,1.197,0.692,1.795
		c0.062,0.598,0.094,1.197,0.094,1.795V396.442z"/>
</g>
</svg>
