<svg id="Layer_1" data-name="Layer 1" xmlns="http://www.w3.org/2000/svg" viewBox="0 0 1024 398"><defs><style>.cls-1{fill:none;}.cls-2{fill:#f58a1f;}</style></defs><title>Enevo_logo</title><rect class="cls-1" width="1024" height="398"/><g id="_Group_" data-name="&lt;Group&gt;"><path id="_Compound_Path_" data-name="&lt;Compound Path&gt;" class="cls-2" d="M225.3,186.33q-1.11-13-7.51-19.21-6.95-6.73-19.82-6.72-11.78,0-19.28,6.72t-8,19.21H225.3Zm9.63,37.44H261.7q-5.87,20.15-22.48,30.73-16.63,11.06-41.77,11.05-30.53,0-47.68-17.78-17.13-17.27-17.13-49.44,0-30.75,16.6-48,17.15-17.76,47.67-17.76,32.13,0,49.79,17.27,17.14,17.76,17.15,49.45v5.29a7.66,7.66,0,0,1-.53,3.35H170.66q0.53,14.88,8,22.09,7,7.67,20.9,7.67a33.05,33.05,0,0,0,15.53-3.35,8.13,8.13,0,0,0,2.95-1.68c0.87-.79,1.86-1.69,2.95-2.64,0.35-1,1.68-2.25,4-3.85s5.62-2.4,9.92-2.4"/><path id="_Path_" data-name="&lt;Path&gt;" class="cls-2" d="M417.26,263.16H398.5c-5.36,0-9.71-1.52-13.13-4.59a15,15,0,0,1-5.09-11.73V181.52q0-11.52-7.76-16.79a30.22,30.22,0,0,0-17.41-5.29A29,29,0,0,0,338,164.73q-7.51,5.27-7.5,16.79v81.64H293V188.24q0-32.65,19-43.69a89.88,89.88,0,0,1,42-12,87.72,87.72,0,0,1,43.4,11q19.78,11,19.83,44.64v74.92Z"/><path id="_Compound_Path_2" data-name="&lt;Compound Path&gt;" class="cls-2" d="M539,186.33q-1.06-13-7.49-19.21-7-6.73-19.81-6.72-11.8,0-19.29,6.72t-8,19.21H539Zm9.66,37.44h26.77q-5.9,20.15-22.48,30.73-16.64,11.06-41.79,11.05-30.5,0-47.66-17.78-17.13-17.27-17.13-49.44,0-30.75,16.59-48,17.16-17.76,47.68-17.76,32.11,0,49.8,17.27,17.13,17.76,17.13,49.45v5.29a8,8,0,0,1-.51,3.35H484.41q0.55,14.88,8,22.09c4.64,5.12,11.59,7.67,20.89,7.67a33.2,33.2,0,0,0,15.55-3.35,8,8,0,0,0,2.93-1.68c0.89-.79,1.87-1.69,3-2.64,0.35-1,1.68-2.25,4-3.85s5.62-2.4,9.89-2.4"/><path id="_Path_2" data-name="&lt;Path&gt;" class="cls-2" d="M687.6,263.16h-38l-49.8-127.72h39.63l28.37,89.78L693,146.95q4.27-11.51,17.12-11.51h27.84Z"/><path id="_Compound_Path_3" data-name="&lt;Compound Path&gt;" class="cls-2" d="M796.57,200q1,21.86,9.11,30.48c2.15,2.57,5.87,4.73,11.22,6.48a28.57,28.57,0,0,0,16.35.48c5.53-1.45,10.44-5,14.71-10.8s6.62-15,7-27.84q0-17.29-6.15-25.92c-4.12-5.76-8.83-9.43-14.19-11a28.94,28.94,0,0,0-16.07-.26c-5.36,1.44-9.3,3.29-11.79,5.52-7.48,7.37-10.9,18.33-10.16,32.87M781,251.57a46.86,46.86,0,0,1-16.09-23.26,97,97,0,0,1-4.8-30.5,87.13,87.13,0,0,1,4-25.91,51.72,51.72,0,0,1,12.59-21.59q13.91-14.4,35.88-17.05t39.63,3.13c13.58,4.81,23.54,13.13,30,25q9.14,15.83,9.14,37,0,15.35-3.78,26.38A64.23,64.23,0,0,1,878,243.42a54.21,54.21,0,0,1-32.65,19.69,81.2,81.2,0,0,1-35.63.72c-11.95-2.4-21.54-6.47-28.64-12.26"/></g><path class="cls-2" d="M875.4,140.6a7.86,7.86,0,0,1,8-8.15,7.71,7.71,0,0,1,8,8.08,7.84,7.84,0,0,1-8,8.15A7.73,7.73,0,0,1,875.4,140.6Zm14.55,0a6.51,6.51,0,0,0-6.59-6.83c-3.88,0-6.54,2.77-6.54,6.8a6.51,6.51,0,0,0,6.59,6.83C887.29,147.38,889.94,144.6,889.94,140.57Zm-5.16,3.55-1.83-2.41h-1v2.22a0.73,0.73,0,0,1-.77.84h-0.27a0.83,0.83,0,0,1-.77-1v-6.42a0.9,0.9,0,0,1,1-1h2.56c2.17,0,3.35.87,3.35,2.65a2.42,2.42,0,0,1-2.24,2.51L887,144.1a1.06,1.06,0,0,1-1,.7A1.42,1.42,0,0,1,884.78,144.12ZM882,140.31h1.71a1.31,1.31,0,0,0,1.57-1.25c0-.87-0.58-1.25-1.64-1.25H882v2.51Z"/></svg>