<?xml version="1.0" encoding="UTF-8"?>
<svg width="96px" height="133px" viewBox="0 0 96 133" version="1.1" xmlns="http://www.w3.org/2000/svg" xmlns:xlink="http://www.w3.org/1999/xlink">
    <!-- Generator: Sketch 50.2 (55047) - http://www.bohemiancoding.com/sketch -->
    <title>Group</title>
    <desc>Created with Sketch.</desc>
    <defs>
        <polygon id="path-1" points="0.000131235853 0.329 95.909 0.329 95.909 133 0.000131235853 133"></polygon>
        <polygon id="path-3" points="0 133 95.909 133 95.909 0.329 0 0.329"></polygon>
    </defs>
    <g id="Symbols" stroke="none" stroke-width="1" fill="none" fill-rule="evenodd">
        <g id="Icon---Secure">
            <g id="Group">
                <mask id="mask-2" fill="white">
                    <use xlink:href="#path-1"></use>
                </mask>
                <g id="Clip-2"></g>
                <path d="M42.6411,102.3451 L42.6461,102.3451 C42.6461,105.1001 42.6021,107.8561 42.6571,110.6101 C42.7291,114.3141 45.9921,116.6891 49.5141,115.6611 C51.7751,115.0021 53.2461,113.0151 53.2561,110.4881 C53.2781,105.0471 53.2761,99.6081 53.2491,94.1681 C53.2461,93.4981 53.4411,93.0751 53.9841,92.6741 C57.2701,90.2431 58.8271,87.0781 58.4011,82.8921 C57.7931,76.9111 51.3711,72.3591 45.5371,73.9491 C41.3161,75.0991 38.5401,77.8161 37.6401,82.0711 C36.7121,86.4551 38.2941,90.0471 41.9321,92.6851 C42.4401,93.0531 42.6621,93.4411 42.6551,94.0791 C42.6221,96.8341 42.6411,99.5901 42.6411,102.3451 M73.3731,58.2411 C73.3971,57.8001 73.4201,57.5581 73.4201,57.3151 C73.4211,51.2051 73.4251,45.0961 73.4141,38.9861 C73.4131,38.1041 73.4081,37.2141 73.2911,36.3431 C72.3251,29.0751 69.0391,23.1271 63.1271,18.7121 C57.6441,14.6161 51.4791,13.0041 44.7011,13.8631 C38.1101,14.6971 32.6541,17.7381 28.4171,22.8071 C24.4331,27.5751 22.4561,33.1371 22.4851,39.3901 C22.5111,45.2881 22.4911,51.1861 22.4911,57.0841 L22.4911,58.2431 C39.5051,54.6891 56.3901,54.6861 73.3731,58.2411 M53.4681,133.0001 L42.4441,133.0001 C42.0311,132.9321 41.6201,132.8251 41.2031,132.8001 C33.7181,132.3541 26.2981,131.3681 19.0511,129.4631 C14.0821,128.1571 9.2181,126.4501 4.3281,124.8631 C1.2431,123.8611 0.0051,122.0371 0.0051,118.7661 L0.0051,77.5421 C0.0051,74.7161 -0.0089,71.8901 0.0101,69.0641 C0.0271,66.5351 1.2131,64.7751 3.5791,63.8531 C5.0241,63.2911 6.4701,62.7261 7.9451,62.2501 C8.8691,61.9521 9.1961,61.4451 9.1911,60.4721 C9.1571,53.6551 9.1871,46.8361 9.1681,40.0191 C9.1521,33.8251 10.2981,27.8971 13.0161,22.2951 C15.4071,17.3691 18.6621,13.1061 22.8371,9.5821 C28.3721,4.9111 34.7081,1.9821 41.9041,0.8381 C51.6161,-0.7049 60.5631,1.2851 68.8291,6.4491 C74.2191,9.8161 78.5381,14.3091 81.5801,19.8871 C83.0391,22.5611 84.2261,25.4261 85.1851,28.3211 C86.6061,32.6131 86.7751,37.1121 86.7481,41.6131 C86.7131,47.8291 86.7621,54.0471 86.7191,60.2641 C86.7121,61.3331 86.9751,61.9651 88.0711,62.2921 C89.4861,62.7141 90.8641,63.2731 92.2381,63.8211 C94.7441,64.8201 95.9001,66.4841 95.9021,69.1751 C95.9121,85.8841 95.9091,102.5921 95.9071,119.3001 C95.9071,121.8931 94.6581,123.7291 92.2711,124.5911 C88.4301,125.9781 84.5641,127.3181 80.6451,128.4581 C72.6941,130.7731 64.5591,132.1201 56.2931,132.6711 C55.3491,132.7351 54.4101,132.8881 53.4681,133.0001" id="Fill-1" fill="#75DEE3" mask="url(#mask-2)"></path>
                <mask id="mask-4" fill="white">
                    <use xlink:href="#path-3"></use>
                </mask>
                <g id="Clip-5"></g>
                <polygon id="Fill-4" fill="#75DEE3" mask="url(#mask-4)" points="30.59 120.388 65.442 120.388 65.442 66.664 30.59 66.664"></polygon>
                <path d="M65.4419,67.4974 L65.4419,67.9874 C65.3899,68.0104 65.3129,68.0174 65.2899,68.0574 C64.4209,69.4644 63.5499,70.8684 62.6979,72.2844 C61.0879,74.9604 59.5039,77.6524 57.8789,80.3194 C56.2779,82.9474 54.6309,85.5484 53.0239,88.1724 C51.4979,90.6614 49.9929,93.1634 48.4849,95.6624 C47.0269,98.0784 45.5799,100.5014 44.1219,102.9174 C43.1239,104.5724 42.1139,106.2224 41.1129,107.8754 C39.8499,109.9634 38.5839,112.0484 37.3339,114.1434 C36.5909,115.3864 35.8789,116.6454 35.1529,117.8974 L34.7849,117.8974 C34.8049,117.7774 34.8149,117.6554 34.8459,117.5384 C35.8999,113.6544 36.9629,109.7724 38.0069,105.8874 C38.5759,103.7734 39.0999,101.6484 39.6719,99.5364 C40.5659,96.2394 41.4899,92.9494 42.3869,89.6534 C43.1059,87.0154 43.8079,84.3724 44.5059,81.7284 C44.6779,81.0804 44.8099,80.4224 44.9729,79.7114 L44.4059,79.7114 C39.3579,79.7114 34.3099,79.7114 29.2609,79.7144 C28.9769,79.7144 28.6929,79.7444 28.4079,79.7604 L28.4079,79.1464 C28.4899,79.0704 28.5929,79.0094 28.6499,78.9174 C29.3049,77.8534 29.9579,76.7884 30.6039,75.7194 C31.2719,74.6164 31.9259,73.5064 32.5959,72.4044 C33.3309,71.1984 34.0869,70.0064 34.8149,68.7974 C35.8129,67.1394 36.7829,65.4634 37.7859,63.8084 C38.5989,62.4654 39.4609,61.1504 40.2729,59.8074 C41.2219,58.2344 42.1259,56.6354 43.0769,55.0644 C44.2469,53.1324 45.4479,51.2184 46.6299,49.2934 C47.7589,47.4564 48.8859,45.6184 50.0029,43.7734 C51.2129,41.7734 52.4029,39.7624 53.6119,37.7624 C55.0309,35.4134 56.4659,33.0754 57.8819,30.7264 C58.1449,30.2894 58.3449,29.8154 58.5749,29.3594 L58.9429,29.3594 C58.9169,29.5804 58.9189,29.8094 58.8589,30.0224 C58.3879,31.7004 57.8869,33.3704 57.4319,35.0534 C56.6349,38.0024 55.8589,40.9564 55.0839,43.9114 C54.4959,46.1494 53.9369,48.3954 53.3379,50.6314 C52.8809,52.3394 52.3739,54.0324 51.9079,55.7374 C51.2119,58.2814 50.5259,60.8274 49.8479,63.3754 C49.4839,64.7444 49.1439,66.1194 48.7809,67.5414 L49.5749,67.5414 C54.3749,67.5414 59.1749,67.5434 63.9759,67.5394 C64.4649,67.5394 64.9539,67.5124 65.4419,67.4974" id="Fill-6" fill="#FFFFFF" mask="url(#mask-4)"></path>
            </g>
        </g>
    </g>
</svg>