<?xml version="1.0" encoding="UTF-8"?>
<svg width="235px" height="124px" viewBox="0 0 235 124" version="1.1" xmlns="http://www.w3.org/2000/svg" xmlns:xlink="http://www.w3.org/1999/xlink">
    <!-- Generator: Sketch 50.2 (55047) - http://www.bohemiancoding.com/sketch -->
    <title>Icon - Fast and Easy</title>
    <desc>Created with Sketch.</desc>
    <defs>
        <polygon id="path-1" points="0.543038889 0.207802517 113.78529 0.207802517 113.78529 115.913043 0.543038889 115.913043"></polygon>
    </defs>
    <g id="Icon---Fast-and-Easy" stroke="none" stroke-width="1" fill="none" fill-rule="evenodd">
        <g id="Group-4">
            <g id="Group" transform="translate(0.000000, 33.000000)" fill="#FFFFFF">
                <path d="M114.472454,1.83672037 C75.1862755,15.2237019 37.5934973,28.0335722 0.000719066148,40.8434426 C0.187676265,41.1202019 0.375532296,41.3969611 0.562489494,41.6737204 C26.2475323,36.4751833 51.9316763,31.2757389 79.0162016,25.7931833 C75.7237774,33.9544056 72.7108903,41.4214611 69.2863377,49.9102574" id="Fill-8"></path>
                <path d="M124.008545,38.2327037 C163.247984,25.0635 196.958704,21.9093519 234.609008,9.2727963 L234.134424,8.5377963 C208.488031,13.3443333 182.841638,18.149963 155.9207,23.1951481 C159.266156,15.341537 162.254774,8.32364815 165.749436,0.117962963" id="Fill-10"></path>
            </g>
            <g id="Group-2" transform="translate(34.000000, 0.000000)">
                <g id="Group-3" transform="translate(38.700000, 7.315101)">
                    <mask id="mask-2" fill="white">
                        <use xlink:href="#path-1"></use>
                    </mask>
                    <g id="Clip-2"></g>
                    <path d="M113.78529,36.9768899 C113.28219,39.3760203 111.74139,41.0464261 109.99629,42.6521362 C103.99509,48.174629 98.05959,53.7690058 92.08719,59.3238464 C88.88769,62.2989478 84.85299,62.4301362 81.50949,59.626658 C76.02939,55.030571 70.58259,50.3949478 65.12229,45.7754986 C64.97919,45.6559913 64.83159,45.5409768 64.62819,45.376542 C57.11499,53.3970058 54.07389,56.3442522 46.50129,64.4303101 C46.84419,64.6199043 47.10879,64.7753536 47.38329,64.9155275 C54.17919,68.3794406 60.57639,70.2268609 67.36869,73.700658 C70.30359,75.2021362 71.85519,77.6174406 71.90919,80.9178174 C71.93169,82.2908029 71.53389,83.5910058 70.80669,84.7690058 C63.02619,94.8624261 54.10809,103.055412 44.58339,112.200861 C42.30459,114.289991 40.24629,115.996339 36.62199,115.910078 C33.43419,115.423962 31.29579,113.485788 30.34719,110.383991 C29.65419,108.116049 30.01959,105.956832 31.27329,103.935093 C34.69509,98.4179913 38.60919,95.4294116 42.57909,90.3930348 C45.11169,87.6883971 45.11169,87.6883971 47.90619,84.7896725 C48.04479,84.5641362 48.17889,84.3350058 48.34359,84.0609478 C48.07269,83.9090928 47.84859,83.7716145 47.61549,83.6521072 C37.38969,80.6078174 28.50579,77.7198754 17.66709,74.6944551 C12.31209,72.0652957 11.54619,65.3603101 15.28929,61.4039913 C25.23159,50.8936435 35.08029,40.2943391 44.96499,29.7309768 C45.35289,29.3167449 45.73719,28.8989188 46.16649,28.4352667 C44.62839,26.7639623 43.11189,25.1133246 41.59359,23.4644841 C39.53979,21.2315855 37.47249,19.0103681 35.44209,16.7559043 C35.07579,16.3488609 34.74189,16.2751797 34.24059,16.394687 C26.19459,18.3121942 18.14499,20.2216145 10.09449,22.1220493 C4.99869,23.3252087 0.48069,19.7031507 0.54369,14.4798754 C0.58149,11.3124841 3.00789,8.24213623 6.22179,7.47567246 C16.24059,5.09091884 26.26929,2.74210725 36.29799,0.399585507 C38.77569,-0.179081159 40.89609,0.577498551 42.68979,2.32158551 C44.57439,4.15283188 46.42749,6.01642609 48.32829,7.8323971 C55.35909,14.5535565 62.39349,21.2720203 69.44679,27.9698174 C74.69289,32.9513826 79.96959,37.8997014 85.23279,42.8623971 C85.58649,43.1957594 85.94289,43.524629 86.32989,43.8840493 C86.50269,43.7582522 86.66019,43.6657014 86.79159,43.5443971 C91.47699,39.1927159 96.17319,34.8518174 100.83699,30.478571 C103.04739,28.4056145 105.61149,27.6975565 108.47619,28.5907159 C111.31029,29.4739913 113.02839,31.496629 113.64669,34.4187159 C113.66739,34.5184551 113.73759,34.6083101 113.78529,34.702658 L113.78529,36.9768899 Z" id="Fill-1" fill="#75DEE3" mask="url(#mask-2)"></path>
                </g>
                <path d="M0.01701,112.962293 C0.05661,112.929046 0.12231,112.902988 0.13311,112.861655 C1.09521,109.007771 4.22631,108.208959 7.50591,106.445104 C16.49781,101.765452 27.06651,96.5484667 35.14671,92.0691913 C35.56251,91.9874232 36.00081,91.637887 36.27801,91.2919449 C40.30911,86.2645536 44.31231,81.2155971 48.32451,76.173829 C48.45501,76.0084957 48.59991,75.8539449 48.63231,75.8180029 C49.33161,77.2440029 49.93731,78.7499739 50.77341,80.1166696 C51.86331,81.9020899 53.44551,83.2211623 55.33281,84.163742 C56.87811,84.9346986 58.40991,85.7326116 60.03171,86.5610754 C58.79961,88.1155681 57.61431,89.6134522 56.42811,91.1095391 C53.23131,95.1395391 49.96971,99.1210174 46.86111,103.21751 C44.95941,104.9598 42.76611,105.849365 39.87171,107.163945 C31.13091,111.385336 19.76931,116.830554 11.26431,121.667452 C9.57051,121.990032 7.88211,122.472554 6.12891,122.00351 C2.93841,121.14809 0.91611,119.164988 0.17091,115.924814 C0.14211,115.799017 0.16371,115.656148 0.11061,115.534843 C0.11061,114.668641 0.01701,113.828496 0.01701,112.962293" id="Fill-4" fill="#75DEE3"></path>
                <path d="M116.61975,34.2613797 C107.18865,34.2703652 99.47655,26.5473217 99.47565,17.0945681 C99.47475,7.65529275 107.07525,0.0571478261 116.57475,0.000539130435 C126.00945,-0.0569681159 133.78725,7.66337971 133.79445,17.0900754 C133.80165,26.4934087 126.04185,34.2523942 116.61975,34.2613797" id="Fill-6" fill="#75DEE3"></path>
            </g>
        </g>
    </g>
</svg>