<?xml version="1.0" encoding="UTF-8"?>
<svg width="193px" height="101px" viewBox="0 0 193 101" version="1.1" xmlns="http://www.w3.org/2000/svg" xmlns:xlink="http://www.w3.org/1999/xlink">
    <!-- Generator: Sketch 50.2 (55047) - http://www.bohemiancoding.com/sketch -->
    <title>Logo - Light</title>
    <desc>Created with Sketch.</desc>
    <defs>
        <polygon id="path-1" points="0.0387889908 0.11602649 34.8229899 0.11602649 34.8229899 29.9849007 0.0387889908 29.9849007"></polygon>
        <polygon id="path-3" points="0.00026519337 0.452154696 34.089547 0.452154696 34.089547 26.9836243 0.00026519337 26.9836243"></polygon>
        <polygon id="path-5" points="0.0786961326 0.438364641 22.7520663 0.438364641 22.7520663 25.8563536 0.0786961326 25.8563536"></polygon>
        <polygon id="path-7" points="0.262740331 0.639314917 15.1564641 0.639314917 15.1564641 22.5018564 0.262740331 22.5018564"></polygon>
    </defs>
    <g id="Logo---Light" stroke="none" stroke-width="1" fill="none" fill-rule="evenodd">
        <g id="Group-2">
            <g id="Group">
                <path d="M14,29.9775908 C22.5600272,22.4441984 30.7666733,15.2219368 38.9733195,8 C39.0925975,8.06430469 39.2118755,8.12893416 39.3311535,8.19323885 C37.8575133,11.1255979 36.3845092,14.0579569 34.7985886,17.2137585 C47.5346189,17.2196044 59.9646614,17.2254503 73,17.2316209 C69.1401631,21.7313257 65.5869503,25.8734573 62.0470966,30 C46.0880151,29.9925303 30.3328194,29.9850605 14,29.9775908" id="Fill-1" fill="#FEFEFE"></path>
                <g id="Group-5" transform="translate(6.000000, 0.000000)">
                    <mask id="mask-2" fill="white">
                        <use xlink:href="#path-1"></use>
                    </mask>
                    <g id="Clip-4"></g>
                    <path d="M0.0387889908,29.9753642 C0.0387889908,29.9753642 31.7134679,16.9832583 34.4290183,0.11586755 C34.4290183,0.11586755 38.4125963,16.92 21.0455321,29.9849007 L0.0387889908,29.9753642 Z" id="Fill-3" fill="#FEFEFE" mask="url(#mask-2)"></path>
                </g>
                <path d="M36.9223555,31 C44.62158,31.003507 52.1662067,31.0070141 60.0650668,31.0105211 C52.6938834,39.2294053 45.4750619,47.278358 37.9652516,55.6515515 C45.6753363,55.6553774 53.0711148,55.6585656 61,55.6620726 C43.3282611,71.0359357 26.1072193,86.0179678 8.88585821,101 C8.7152896,100.890644 8.54440156,100.781289 8.37383295,100.671933 C13.1746687,91.2278203 17.9758238,81.7833885 22.8763176,72.1435195 C15.2154231,72.1396937 7.82251941,72.1365054 0,72.1329984 C12.4463982,58.2668394 24.6490813,44.6729535 36.9223555,31" id="Fill-6" fill="#75DEE3"></path>
            </g>
            <g id="Group" transform="translate(73.000000, 36.000000)">
                <g id="Group-3" transform="translate(0.000000, 0.211094)">
                    <mask id="mask-4" fill="white">
                        <use xlink:href="#path-3"></use>
                    </mask>
                    <g id="Clip-2"></g>
                    <path d="M14.1609282,20.7383204 C16.7863425,20.1018564 18.5763978,19.7438453 19.2526409,19.7438453 C19.769768,19.7438453 20.087337,19.9825193 20.087337,20.3803094 C20.087337,20.8178785 19.769768,21.0565525 19.0537459,21.2156685 L17.5819227,21.5339006 C15.7918674,21.9316906 12.848221,22.7272707 10.6603757,23.4432928 C8.59253039,24.0797569 5.92667403,25.0337901 3.97816575,25.8300331 L2.74435359,26.3471602 C2.34722652,26.5056133 2.06877348,26.6256133 1.94943646,26.6647293 C1.35275138,26.9431823 1.15385635,26.9836243 0.875403315,26.9836243 C0.318497238,26.9836243 0.00026519337,26.6647293 0.00026519337,26.1482652 C0.00026519337,25.3122431 0.716287293,24.1195359 2.54545856,22.1305856 C4.37529282,20.1018564 7.71672928,16.9599779 11.1377238,14.0952265 C14.1609282,11.5102541 18.1786077,8.44727072 21.8376133,5.90141436 C23.5089945,4.7478232 25.0597127,3.71356906 25.9348508,3.15666298 C26.2928619,2.91798895 26.5315359,2.75887293 27.088442,2.40086188 C24.3834696,2.5201989 21.5996022,2.83843094 18.1388287,3.39533702 C16.6272265,3.63401105 16.4283315,3.67379006 16.1094365,3.67379006 C15.5531934,3.67379006 15.1951823,3.39533702 15.1951823,2.99754696 C15.1951823,2.40086188 15.4729724,2.28152486 17.9797127,1.88439779 C21.5591602,1.28704972 24.1845746,0.969480663 27.088442,0.730143646 C28.0033591,0.691027624 29.9525304,0.571027624 31.1061215,0.491469613 C31.6623646,0.491469613 32.2597127,0.451690608 32.7370608,0.451690608 C33.6513149,0.451690608 34.089547,0.650585635 34.089547,1.0881547 C34.089547,1.32749171 33.8906519,1.52572376 33.4928619,1.8041768 C33.2137459,1.9639558 32.5779448,2.32130387 30.9470055,3.35555801 C26.0541878,6.37876243 21.2415912,9.79975691 16.3878895,13.7372155 C13.8824751,15.7659448 11.3366188,17.9935691 9.42722652,19.7842873 C7.99518232,21.0963315 7.39916022,21.6930166 6.12623204,23.0852818 C8.71120442,22.2101436 11.6150718,21.3350055 14.1609282,20.7383204" id="Fill-1" fill="#75DEE3" mask="url(#mask-4)"></path>
                </g>
                <path d="M21.5994033,20.7104751 C24.4634917,19.1590939 25.9750939,17.8861657 27.1286851,16.1763315 C27.6060331,15.5000884 27.8838232,14.7442873 27.8838232,14.1873812 C27.8838232,13.9878232 27.8042652,13.9487072 27.6458122,13.9487072 C27.0491271,13.9487072 25.8948729,14.5056133 24.8612818,15.2607514 C23.2303425,16.4945635 21.8778564,18.6817459 21.4402873,20.8304751 L21.5994033,20.7104751 Z M22.6734365,24.0121326 C22.8723315,24.0121326 23.2303425,23.8927956 23.6679116,23.6143425 C24.9806188,22.8983204 26.1342099,22.1829613 29.0380773,20.3524641 C31.2650387,18.9210829 32.2203978,18.3237348 33.413105,17.6481547 C34.8451492,16.7730166 35.0049282,16.7332376 35.3224972,16.7332376 C35.6009503,16.7332376 35.8396243,16.8916906 35.8396243,17.1708066 C35.8396243,17.4492597 35.6009503,17.6077127 34.5673591,18.2050608 C33.771116,18.6426298 32.5379669,19.3586519 30.6690166,20.5911381 C29.5552044,21.3071602 28.6005083,21.9436243 26.531337,23.3763315 C21.5994033,26.796663 20.6844862,27.3137901 19.690011,27.3137901 C18.5364199,27.3137901 17.8999558,26.2795359 17.8999558,24.5292597 C17.8999558,21.5464972 19.411558,18.4039558 22.1165304,15.9376575 C24.5032707,13.7498122 28.0031602,12.1586519 30.5092376,12.1586519 C31.3054807,12.1586519 31.5839337,12.357547 31.5839337,12.834895 C31.5839337,13.7093702 30.6690166,15.2607514 29.3960884,16.5741215 C27.6060331,18.4437348 25.3784088,19.995116 22.1165304,21.6253923 L21.4800663,21.9436243 C21.5994033,23.1774365 22.0767514,24.0121326 22.6734365,24.0121326 Z" id="Fill-4" fill="#75DEE3"></path>
                <path d="M37.9480442,15.54 C37.0735691,16.9322652 36.675116,17.6874033 36.1182099,18.8807735 C38.3856133,16.6538122 40.7723536,14.8239779 42.9999779,13.5510497 C44.2729061,12.8350276 45.6253923,12.4770166 47.0176575,12.4770166 C47.4154475,12.4770166 47.7336796,12.4770166 48.3303646,12.5963536 C47.4552265,13.3521547 46.8983204,14.0283978 46.0629613,15.380884 C45.3867182,16.5338122 44.9491492,17.3293923 44.5513591,18.2847514 C43.795558,18.4829834 43.397768,18.5632044 42.8010829,18.5632044 C41.9663867,18.5632044 41.4883757,18.2847514 41.4883757,17.7278453 C41.4883757,17.2902762 41.8861657,16.5338122 42.7215249,15.221768 C41.0514696,15.898011 39.4205304,17.0509392 37.1922431,19.1996685 C35.3232928,21.0686188 33.9303646,22.779116 32.4194254,25.1260773 C31.3049503,26.9161326 31.1464972,27.0745856 30.6293702,27.0745856 C30.1520221,27.0745856 29.8337901,26.6774586 29.8337901,25.9614365 C29.8337901,23.9327072 32.3398674,18.3643094 34.6470497,15.181989 C36.0386519,13.3123757 36.795116,12.9145856 39.2607514,12.9145856 L39.4596464,12.9145856 L39.7380994,12.9145856 C39.1016354,13.8295028 38.6640663,14.4659669 37.9480442,15.54" id="Fill-6" fill="#75DEE3"></path>
                <g id="Group-10" transform="translate(43.756906, 1.537061)">
                    <mask id="mask-6" fill="white">
                        <use xlink:href="#path-5"></use>
                    </mask>
                    <g id="Clip-9"></g>
                    <path d="M6.36311602,17.065326 C9.18742541,15.0365967 11.5343867,13.8438895 15.7907403,12.2129503 C17.3023425,11.6156022 17.9785856,11.4167072 18.3365967,11.4167072 C18.6548287,11.4167072 18.8928398,11.5764862 18.8928398,11.8549392 C18.8928398,12.1333923 18.6946077,12.3316243 18.1377017,12.5305193 L17.6603536,12.6896354 C16.5067624,13.0880884 14.2393591,14.0421215 12.8470939,14.7183646 C12.6084199,16.5879779 12.4890829,18.1002431 12.4890829,19.8100773 C12.4890829,20.9238895 12.5288619,21.4410166 12.6879779,22.2763757 L13.125547,21.9979227 C16.3874254,19.7702983 18.8132818,18.2189171 20.523779,17.224442 C21.6780331,16.5879779 21.9956022,16.4288619 22.2740552,16.4288619 C22.5525083,16.4288619 22.7520663,16.6277569 22.7520663,16.9068729 C22.7520663,17.224442 22.6320663,17.304 21.4386961,17.9802431 C20.165768,18.7367072 18.6946077,19.6509613 17.5012376,20.4465414 C16.0691934,21.4807956 13.8813481,23.1117348 13.085768,23.8277569 L11.6537238,25.1006851 C10.9774807,25.6973702 10.6990276,25.8564862 10.4205746,25.8564862 C9.46587845,25.8564862 9.0680884,24.384663 9.0680884,21.0034475 C9.0680884,19.4527293 9.18742541,18.2189171 9.42609945,16.6277569 C7.59626519,17.742232 6.56267403,18.5769282 5.4481989,19.6907403 C4.21571271,20.9636685 2.70344751,23.0321768 1.86875138,24.583558 C1.43118232,25.3791381 1.15272928,25.6575912 0.754939227,25.6575912 C0.317370166,25.6575912 0.0786961326,25.2200221 0.0786961326,24.583558 C0.0786961326,20.8841105 4.57372376,13.0476464 10.6592486,6.08632044 C15.0747182,1.11460773 15.7907403,0.677038674 19.8873149,0.438364641 C15.4327293,4.29692818 9.30676243,11.8549392 6.36311602,17.065326" id="Fill-8" fill="#75DEE3" mask="url(#mask-6)"></path>
                </g>
                <path d="M79.8745856,13.7012818 L75.6420994,14.0195138 C75.5353591,12.4078011 75.2489503,11.2144309 74.7828729,10.4394033 C74.3161326,9.66503867 73.6054144,9.27785635 72.6507182,9.27785635 C71.5050829,9.27785635 70.6882873,9.86194475 70.2003315,11.0287956 C69.7123757,12.1956464 69.4683978,14.1149834 69.4683978,16.7881326 C69.4683978,19.2285746 69.7176796,20.9682431 70.2162431,22.0071381 C70.7148066,23.0473591 71.5256354,23.5664751 72.6507182,23.5664751 C73.499337,23.5664751 74.1676243,23.2276906 74.6555801,22.5487956 C75.1435359,21.8692376 75.4829834,20.7872486 75.6739227,19.3021657 L79.9700552,19.5885746 C79.7579006,21.9865856 78.9941436,23.8800663 77.6787845,25.2690166 C76.3627624,26.6592928 74.6555801,27.3540994 72.5552486,27.3540994 C70.0093923,27.3540994 68.0409945,26.4040442 66.6520442,24.5052597 C65.2624309,22.6071381 64.5676243,19.9180773 64.5676243,16.4380773 C64.5676243,12.9381878 65.2624309,10.2378564 66.6520442,8.33907182 C68.0409945,6.44095028 70.0299448,5.49089503 72.618895,5.49089503 C74.8465193,5.49089503 76.5855249,6.20691713 77.8379006,7.63896133 C79.0889503,9.07166851 79.7685083,11.091779 79.8745856,13.7012818" id="Fill-11" fill="#FEFEFE"></path>
                <polygon id="Fill-13" fill="#FEFEFE" points="89.5170166 5.80952486 92.5090608 18.9200221 95.8823204 5.80952486 102.500884 5.80952486 102.500884 27.0356022 98.141105 27.0356022 98.141105 9.24643094 93.8131492 27.0356022 90.4087293 27.0356022 86.4626519 9.24643094 86.4626519 27.0356022 82.6756906 27.0356022 82.6756906 5.80952486"></polygon>
                <g id="Group-17" transform="translate(104.751381, 4.851978)">
                    <mask id="mask-8" fill="white">
                        <use xlink:href="#path-7"></use>
                    </mask>
                    <g id="Clip-16"></g>
                    <path d="M14.7429613,5.5719116 L10.8605304,7.06760221 C10.5847293,6.17655249 10.197547,5.51356906 9.69898343,5.07865193 C9.20041989,4.64439779 8.58981215,4.42561326 7.86914917,4.42561326 C7.23268508,4.42561326 6.70163536,4.61721547 6.27732597,4.99909392 C5.85301657,5.38097238 5.64086188,5.83710497 5.64086188,6.36682873 C5.64086188,7.34340331 6.40992265,8.11246409 7.94870718,8.67467403 C9.48616575,9.23688398 10.7491492,9.77257459 11.7356685,10.2817459 C12.7215249,10.7909171 13.5383204,11.4910276 14.1853923,12.3814144 C14.8331271,13.2724641 15.156663,14.3869392 15.156663,15.7235138 C15.156663,17.7396464 14.4664972,19.3719116 13.0881547,20.6242873 C11.7084862,21.876 9.89522652,22.5018564 7.64638674,22.5018564 C5.65146961,22.5018564 4.05036464,22.0085967 2.84108287,21.0220773 C1.6318011,20.034895 0.772574586,18.5876022 0.262740331,16.6782099 L4.33677348,15.5319116 C4.84528177,17.6541215 5.98030939,18.714232 7.74119337,18.714232 C8.56859669,18.714232 9.22627624,18.5027403 9.71489503,18.077768 C10.2021878,17.6541215 10.4468287,17.1031823 10.4468287,16.4229613 C10.4468287,15.7022983 10.1491492,15.1347845 9.55577901,14.7210829 C8.96108287,14.3073812 8.06472928,13.8989834 6.86605525,13.4958895 C5.6680442,13.0927956 4.6278232,12.6101436 3.7480442,12.0479337 C2.86693923,11.4857238 2.20925967,10.8068287 1.77434254,10.0105856 C1.33942541,9.21566851 1.12262983,8.25566851 1.12262983,7.13124862 C1.12262983,5.22185635 1.74318232,3.66251934 2.98428729,2.45323757 C4.22539227,1.2439558 5.86362431,0.639314917 7.90097238,0.639314917 C9.70362431,0.639314917 11.1727956,1.0318011 12.3078232,1.81677348 C13.4428508,2.60174586 14.2543425,3.85279558 14.7429613,5.5719116" id="Fill-15" fill="#FEFEFE" mask="url(#mask-8)"></path>
                </g>
            </g>
        </g>
    </g>
</svg>