<?xml version="1.0" encoding="UTF-8"?>
<svg width="16px" height="19px" viewBox="0 0 16 19" version="1.1" xmlns="http://www.w3.org/2000/svg" xmlns:xlink="http://www.w3.org/1999/xlink">
    <!-- Generator: Sketch 50.2 (55047) - http://www.bohemiancoding.com/sketch -->
    <title>img_youtube</title>
    <desc>Created with Sketch.</desc>
    <defs></defs>
    <g id="home" stroke="none" stroke-width="1" fill="none" fill-rule="evenodd">
        <g id="Home-modal-2" transform="translate(-238.000000, -1754.000000)" fill="#CFCFCF">
            <g id="Group-4" transform="translate(-89.000000, -62.000000)">
                <g id="footer" transform="translate(89.000000, 1738.000000)">
                    <g id="socials" transform="translate(134.000000, 79.000000)">
                        <path d="M113.753348,12.0669643 L113.753348,14.1863839 C113.753348,14.6350469 113.622769,14.859375 113.361607,14.859375 C113.207589,14.859375 113.05692,14.785715 112.909598,14.6383929 L112.909598,11.6149554 C113.05692,11.4676332 113.207589,11.3939732 113.361607,11.3939732 C113.622769,11.3939732 113.753348,11.6183013 113.753348,12.0669643 Z M117.148438,12.0770089 L117.148438,12.5390625 L116.24442,12.5390625 L116.24442,12.0770089 C116.24442,11.6216495 116.395088,11.3939732 116.696429,11.3939732 C116.997769,11.3939732 117.148438,11.6216495 117.148438,12.0770089 Z M107.445312,9.88727679 L108.520089,9.88727679 L108.520089,8.94308036 L105.386161,8.94308036 L105.386161,9.88727679 L106.440848,9.88727679 L106.440848,15.6026786 L107.445312,15.6026786 L107.445312,9.88727679 Z M110.33817,15.6026786 L111.232143,15.6026786 L111.232143,10.640625 L110.33817,10.640625 L110.33817,14.4375 C110.137276,14.7187514 109.946429,14.859375 109.765625,14.859375 C109.645089,14.859375 109.574777,14.7890632 109.554688,14.6484375 C109.547991,14.6283481 109.544643,14.5111618 109.544643,14.296875 L109.544643,10.640625 L108.65067,10.640625 L108.65067,14.5680804 C108.65067,14.896207 108.677455,15.1406242 108.731027,15.3013393 C108.811384,15.5491084 109.005579,15.6729911 109.313616,15.6729911 C109.635046,15.6729911 109.976561,15.468752 110.33817,15.0602679 L110.33817,15.6026786 Z M114.647321,14.1160714 L114.647321,12.1372768 C114.647321,11.6484351 114.617188,11.3169652 114.55692,11.1428571 C114.44308,10.7678553 114.205359,10.5803571 113.84375,10.5803571 C113.508927,10.5803571 113.197546,10.7611589 112.909598,11.1227679 L112.909598,8.94308036 L112.015625,8.94308036 L112.015625,15.6026786 L112.909598,15.6026786 L112.909598,15.1205357 C113.210939,15.4888411 113.52232,15.6729911 113.84375,15.6729911 C114.205359,15.6729911 114.44308,15.4888411 114.55692,15.1205357 C114.617188,14.9397312 114.647321,14.6049132 114.647321,14.1160714 Z M118.042411,14.015625 L118.042411,13.8850446 L117.128348,13.8850446 C117.128348,14.2265642 117.121652,14.4308032 117.108259,14.4977679 C117.061384,14.7388405 116.927456,14.859375 116.706473,14.859375 C116.398436,14.859375 116.24442,14.6283505 116.24442,14.1662946 L116.24442,13.2924107 L118.042411,13.2924107 L118.042411,12.2578125 C118.042411,11.728792 117.95201,11.340403 117.771205,11.0926339 C117.510043,10.7511144 117.155136,10.5803571 116.706473,10.5803571 C116.251114,10.5803571 115.892858,10.7511144 115.631696,11.0926339 C115.444195,11.340403 115.350446,11.728792 115.350446,12.2578125 L115.350446,13.9955357 C115.350446,14.5245562 115.447544,14.9129452 115.641741,15.1607143 C115.902903,15.5022339 116.264507,15.6729911 116.726562,15.6729911 C117.208708,15.6729911 117.570311,15.4955375 117.811384,15.140625 C117.93192,14.9598205 118.002232,14.7790188 118.022321,14.5982143 C118.035714,14.5379461 118.042411,14.3437516 118.042411,14.015625 Z M111.935268,4.84486607 L111.935268,2.73549107 C111.935268,2.27343519 111.791296,2.04241071 111.503348,2.04241071 C111.2154,2.04241071 111.071429,2.27343519 111.071429,2.73549107 L111.071429,4.84486607 C111.071429,5.31361842 111.2154,5.54799107 111.503348,5.54799107 C111.791296,5.54799107 111.935268,5.31361842 111.935268,4.84486607 Z M119.157366,12.3883929 C119.157366,13.955365 119.070313,15.1272283 118.896205,15.9040179 C118.802455,16.2991091 118.60826,16.630579 118.313616,16.8984375 C118.018972,17.166296 117.677457,17.3203123 117.289062,17.3604911 C116.056913,17.5011168 114.198673,17.5714286 111.714286,17.5714286 C109.229898,17.5714286 107.371658,17.5011168 106.139509,17.3604911 C105.751114,17.3203123 105.407926,17.166296 105.109933,16.8984375 C104.81194,16.630579 104.61942,16.2991091 104.532366,15.9040179 C104.358258,15.1540141 104.271205,13.9821508 104.271205,12.3883929 C104.271205,10.8214207 104.358258,9.64955746 104.532366,8.87276786 C104.626117,8.4776766 104.820311,8.1462067 105.114955,7.87834821 C105.4096,7.61048973 105.754462,7.45312523 106.149554,7.40625 C107.375006,7.27232076 109.229898,7.20535714 111.714286,7.20535714 C114.198673,7.20535714 116.056913,7.27232076 117.289062,7.40625 C117.677457,7.45312523 118.020646,7.61048973 118.318638,7.87834821 C118.616631,8.1462067 118.809151,8.4776766 118.896205,8.87276786 C119.070313,9.62277161 119.157366,10.7946349 119.157366,12.3883929 Z M109.132812,-0.428571429 L110.157366,-0.428571429 L108.941964,3.57924107 L108.941964,6.30133929 L107.9375,6.30133929 L107.9375,3.57924107 C107.84375,3.08370288 107.639511,2.37388855 107.324777,1.44977679 C107.077008,0.760041194 106.859376,0.133931384 106.671875,-0.428571429 L107.736607,-0.428571429 L108.449777,2.21316964 L109.132812,-0.428571429 Z M112.84933,2.91629464 L112.84933,4.67410714 C112.84933,5.21652057 112.755581,5.6116059 112.56808,5.859375 C112.313615,6.20089456 111.958708,6.37165179 111.503348,6.37165179 C111.054685,6.37165179 110.703126,6.20089456 110.448661,5.859375 C110.26116,5.60490944 110.167411,5.20982411 110.167411,4.67410714 L110.167411,2.91629464 C110.167411,2.38057768 110.26116,1.98884052 110.448661,1.74107143 C110.703126,1.39955186 111.054685,1.22879464 111.503348,1.22879464 C111.958708,1.22879464 112.313615,1.39955186 112.56808,1.74107143 C112.755581,1.98884052 112.84933,2.38057768 112.84933,2.91629464 Z M116.214286,1.2890625 L116.214286,6.30133929 L115.300223,6.30133929 L115.300223,5.74888393 C114.945311,6.16406458 114.600448,6.37165179 114.265625,6.37165179 C113.957588,6.37165179 113.760045,6.2477691 113.672991,6 C113.619419,5.83928491 113.592634,5.58817135 113.592634,5.24665179 L113.592634,1.2890625 L114.506696,1.2890625 L114.506696,4.97544643 C114.506696,5.19642968 114.510045,5.313616 114.516741,5.32700893 C114.53683,5.47433109 114.607142,5.54799107 114.727679,5.54799107 C114.908483,5.54799107 115.099329,5.4040193 115.300223,5.11607143 L115.300223,1.2890625 L116.214286,1.2890625 Z" id="youtube"></path>
                    </g>
                </g>
            </g>
        </g>
    </g>
</svg>