<?xml version="1.0" encoding="UTF-8"?>
<svg width="10px" height="18px" viewBox="0 0 10 18" version="1.1" xmlns="http://www.w3.org/2000/svg" xmlns:xlink="http://www.w3.org/1999/xlink">
    <!-- Generator: Sketch 50.2 (55047) - http://www.bohemiancoding.com/sketch -->
    <title>img_facebook</title>
    <desc>Created with Sketch.</desc>
    <defs></defs>
    <g id="home" stroke="none" stroke-width="1" fill="none" fill-rule="evenodd">
        <g id="Home-modal-2" transform="translate(-134.000000, -1754.000000)" fill="#CFCFCF">
            <g id="Group-4" transform="translate(-89.000000, -62.000000)">
                <g id="footer" transform="translate(89.000000, 1738.000000)">
                    <g id="socials" transform="translate(134.000000, 79.000000)">
                        <path d="M9.6328125,-0.308035714 L9.6328125,2.34375 L8.05580357,2.34375 C7.47990783,2.34375 7.09151886,2.46428451 6.890625,2.70535714 C6.68973114,2.94642978 6.58928571,3.3080333 6.58928571,3.79017857 L6.58928571,5.68861607 L9.53236607,5.68861607 L9.140625,8.66183036 L6.58928571,8.66183036 L6.58928571,16.2857143 L3.515625,16.2857143 L3.515625,8.66183036 L0.954241071,8.66183036 L0.954241071,5.68861607 L3.515625,5.68861607 L3.515625,3.49888393 C3.515625,2.25334199 3.8638358,1.28739182 4.56026786,0.601004464 C5.25669991,-0.0853828962 6.18414599,-0.428571429 7.34263393,-0.428571429 C8.32701385,-0.428571429 9.09039907,-0.388393259 9.6328125,-0.308035714 Z" id="facebook"></path>
                    </g>
                </g>
            </g>
        </g>
    </g>
</svg>