<?xml version="1.0" encoding="UTF-8"?>
<svg width="17px" height="13px" viewBox="0 0 17 13" version="1.1" xmlns="http://www.w3.org/2000/svg" xmlns:xlink="http://www.w3.org/1999/xlink">
    <!-- Generator: Sketch 50.2 (55047) - http://www.bohemiancoding.com/sketch -->
    <title>img_twitter</title>
    <desc>Created with Sketch.</desc>
    <defs></defs>
    <g id="home" stroke="none" stroke-width="1" fill="none" fill-rule="evenodd">
        <g id="Home-modal-2" transform="translate(-165.000000, -1757.000000)" fill="#CFCFCF">
            <g id="Group-4" transform="translate(-89.000000, -62.000000)">
                <g id="footer" transform="translate(89.000000, 1738.000000)">
                    <g id="socials" transform="translate(134.000000, 79.000000)">
                        <path d="M47.2723214,3.66964286 C46.8236585,4.32589614 46.2812532,4.88504233 45.6450893,5.34709821 C45.6517857,5.44084868 45.6551339,5.58147228 45.6551339,5.76897321 C45.6551339,6.63951328 45.5279031,7.5083662 45.2734375,8.37555804 C45.0189719,9.24274987 44.6322571,10.0747728 44.1132812,10.8716518 C43.5943054,11.6685308 42.9765661,12.3733228 42.2600446,12.9860491 C41.5435232,13.5987754 40.6796926,14.0876098 39.6685268,14.452567 C38.657361,14.8175241 37.5758986,15 36.4241071,15 C34.6093659,15 32.9486682,14.5145138 31.4419643,13.5435268 C31.6763405,13.5703126 31.9374986,13.5837054 32.2254464,13.5837054 C33.7321504,13.5837054 35.0747709,13.1216564 36.2533482,12.1975446 C35.5502197,12.1841517 34.9207617,11.9681941 34.3649554,11.5496652 C33.809149,11.1311363 33.4274564,10.5971015 33.2198661,9.94754464 C33.4408493,9.98102695 33.6450883,9.99776786 33.8325893,9.99776786 C34.1205372,9.99776786 34.4051325,9.96093787 34.6863839,9.88727679 C33.9363802,9.73325816 33.3152926,9.359936 32.8231027,8.76729911 C32.3309127,8.17466222 32.0848214,7.48661106 32.0848214,6.703125 L32.0848214,6.66294643 C32.5401808,6.91741199 33.0290152,7.0546874 33.5513393,7.07477679 C33.1093728,6.78013246 32.7578138,6.39509166 32.4966518,5.91964286 C32.2354898,5.44419405 32.1049107,4.92857421 32.1049107,4.37276786 C32.1049107,3.7834792 32.2522307,3.23772573 32.546875,2.73549107 C33.3571469,3.73326392 34.3431862,4.53180504 35.5050223,5.13113839 C36.6668585,5.73047175 37.9107077,6.06361574 39.2366071,6.13058036 C39.1830354,5.8761148 39.15625,5.62834942 39.15625,5.38727679 C39.15625,4.48995087 39.4726531,3.72489156 40.1054688,3.09207589 C40.7382844,2.45926023 41.5033437,2.14285714 42.4006696,2.14285714 C43.3381743,2.14285714 44.128345,2.48437158 44.7712054,3.16741071 C45.5011197,3.02678501 46.1874968,2.76562691 46.8303571,2.38392857 C46.582588,3.15402171 46.1071464,3.74999789 45.4040179,4.171875 C46.0267888,4.10491038 46.6495505,3.93750134 47.2723214,3.66964286 Z" id="twitter"></path>
                    </g>
                </g>
            </g>
        </g>
    </g>
</svg>