<?xml version="1.0" encoding="UTF-8"?>
<svg width="14px" height="20px" viewBox="0 0 14 20" version="1.1" xmlns="http://www.w3.org/2000/svg" xmlns:xlink="http://www.w3.org/1999/xlink">
    <!-- Generator: Sketch 50.2 (55047) - http://www.bohemiancoding.com/sketch -->
    <title>img_location</title>
    <desc>Created with Sketch.</desc>
    <defs></defs>
    <g id="home" stroke="none" stroke-width="1" fill="none" fill-rule="evenodd">
        <g id="Home-modal-2" transform="translate(-113.000000, -1794.000000)" fill="#0091FF" fill-rule="nonzero">
            <g id="Group-4" transform="translate(-89.000000, -62.000000)">
                <g id="footer" transform="translate(89.000000, 1738.000000)">
                    <g id="directions" transform="translate(113.000000, 113.000000)">
                        <path d="M7,5 C3.13,5 0,8.13 0,12 C0,17.25 7,25 7,25 C7,25 14,17.25 14,12 C14,8.13 10.87,5 7,5 Z M7,14.5 C5.62,14.5 4.5,13.38 4.5,12 C4.5,10.62 5.62,9.5 7,9.5 C8.38,9.5 9.5,10.62 9.5,12 C9.5,13.38 8.38,14.5 7,14.5 Z" id="location"></path>
                    </g>
                </g>
            </g>
        </g>
    </g>
</svg>