<?xml version="1.0" encoding="UTF-8"?>
<svg width="16px" height="17px" viewBox="0 0 16 17" version="1.1" xmlns="http://www.w3.org/2000/svg" xmlns:xlink="http://www.w3.org/1999/xlink">
    <!-- Generator: Sketch 50.2 (55047) - http://www.bohemiancoding.com/sketch -->
    <title>img_instagram</title>
    <desc>Created with Sketch.</desc>
    <defs></defs>
    <g id="home" stroke="none" stroke-width="1" fill="none" fill-rule="evenodd">
        <g id="Home-modal-2" transform="translate(-202.000000, -1755.000000)" fill="#CFCFCF">
            <g id="Group-4" transform="translate(-89.000000, -62.000000)">
                <g id="footer" transform="translate(89.000000, 1738.000000)">
                    <g id="socials" transform="translate(134.000000, 79.000000)">
                        <path d="M77.5323661,10.3895089 C78.0346007,9.88727427 78.2857143,9.28125355 78.2857143,8.57142857 C78.2857143,7.86160359 78.0346007,7.25558287 77.5323661,6.75334821 C77.0301314,6.25111356 76.4241107,6 75.7142857,6 C75.0044607,6 74.39844,6.25111356 73.8962054,6.75334821 C73.3939707,7.25558287 73.1428571,7.86160359 73.1428571,8.57142857 C73.1428571,9.28125355 73.3939707,9.88727427 73.8962054,10.3895089 C74.39844,10.8917436 75.0044607,11.1428571 75.7142857,11.1428571 C76.4241107,11.1428571 77.0301314,10.8917436 77.5323661,10.3895089 Z M78.5167411,5.76897321 C79.2868342,6.53906635 79.671875,7.47320879 79.671875,8.57142857 C79.671875,9.66964835 79.2868342,10.6037908 78.5167411,11.3738839 C77.7466479,12.1439771 76.8125055,12.5290179 75.7142857,12.5290179 C74.6160659,12.5290179 73.6819235,12.1439771 72.9118304,11.3738839 C72.1417372,10.6037908 71.7566964,9.66964835 71.7566964,8.57142857 C71.7566964,7.47320879 72.1417372,6.53906635 72.9118304,5.76897321 C73.6819235,4.99888008 74.6160659,4.61383929 75.7142857,4.61383929 C76.8125055,4.61383929 77.7466479,4.99888008 78.5167411,5.76897321 Z M80.4854911,3.80022321 C80.6662955,3.98102769 80.7566964,4.19865944 80.7566964,4.453125 C80.7566964,4.70759056 80.6662955,4.92522231 80.4854911,5.10602679 C80.3046866,5.28683126 80.0870548,5.37723214 79.8325893,5.37723214 C79.5781237,5.37723214 79.360492,5.28683126 79.1796875,5.10602679 C78.998883,4.92522231 78.9084821,4.70759056 78.9084821,4.453125 C78.9084821,4.19865944 78.998883,3.98102769 79.1796875,3.80022321 C79.360492,3.61941874 79.5781237,3.52901786 79.8325893,3.52901786 C80.0870548,3.52901786 80.3046866,3.61941874 80.4854911,3.80022321 Z M76.4776786,2.24330357 L75.7142857,2.24330357 C75.6674105,2.24330357 75.4112746,2.24162948 74.9458705,2.23828125 C74.4804664,2.23493302 74.1272333,2.23493302 73.8861607,2.23828125 C73.6450881,2.24162948 73.3219886,2.25167402 72.9168527,2.26841518 C72.5117167,2.28515633 72.1668541,2.31863814 71.8822545,2.36886161 C71.5976548,2.41908507 71.3582599,2.48102642 71.1640625,2.5546875 C70.8292394,2.68861674 70.5345995,2.88281123 70.2801339,3.13727679 C70.0256684,3.39174234 69.8314739,3.68638225 69.6975446,4.02120536 C69.6238836,4.21540276 69.5619422,4.45479768 69.5117188,4.73939732 C69.4614953,5.02399696 69.4280135,5.36885958 69.4112723,5.77399554 C69.3945312,6.17913149 69.3844866,6.50223094 69.3811384,6.74330357 C69.3777902,6.98437621 69.3777902,7.33760928 69.3811384,7.80301339 C69.3844866,8.26841751 69.3861607,8.52455334 69.3861607,8.57142857 C69.3861607,8.61830381 69.3844866,8.87443964 69.3811384,9.33984375 C69.3777902,9.80524786 69.3777902,10.1584809 69.3811384,10.3995536 C69.3844866,10.6406262 69.3945312,10.9637257 69.4112723,11.3688616 C69.4280135,11.7739976 69.4614953,12.1188602 69.5117188,12.4034598 C69.5619422,12.6880595 69.6238836,12.9274544 69.6975446,13.1216518 C69.8314739,13.4564749 70.0256684,13.7511148 70.2801339,14.0055804 C70.5345995,14.2600459 70.8292394,14.4542404 71.1640625,14.5881696 C71.3582599,14.6618307 71.5976548,14.7237721 71.8822545,14.7739955 C72.1668541,14.824219 72.5117167,14.8577008 72.9168527,14.874442 C73.3219886,14.8911831 73.6450881,14.9012277 73.8861607,14.9045759 C74.1272333,14.9079241 74.4804664,14.9079241 74.9458705,14.9045759 C75.4112746,14.9012277 75.6674105,14.8995536 75.7142857,14.8995536 C75.7611609,14.8995536 76.0172968,14.9012277 76.4827009,14.9045759 C76.948105,14.9079241 77.3013381,14.9079241 77.5424107,14.9045759 C77.7834833,14.9012277 78.1065828,14.8911831 78.5117188,14.874442 C78.9168547,14.8577008 79.2617173,14.824219 79.546317,14.7739955 C79.8309166,14.7237721 80.0703115,14.6618307 80.2645089,14.5881696 C80.599332,14.4542404 80.8939719,14.2600459 81.1484375,14.0055804 C81.4029031,13.7511148 81.5970975,13.4564749 81.7310268,13.1216518 C81.8046879,12.9274544 81.8666292,12.6880595 81.9168527,12.4034598 C81.9670761,12.1188602 82.000558,11.7739976 82.0172991,11.3688616 C82.0340403,10.9637257 82.0440848,10.6406262 82.047433,10.3995536 C82.0507813,10.1584809 82.0507813,9.80524786 82.047433,9.33984375 C82.0440848,8.87443964 82.0424107,8.61830381 82.0424107,8.57142857 C82.0424107,8.52455334 82.0440848,8.26841751 82.047433,7.80301339 C82.0507813,7.33760928 82.0507813,6.98437621 82.047433,6.74330357 C82.0440848,6.50223094 82.0340403,6.17913149 82.0172991,5.77399554 C82.000558,5.36885958 81.9670761,5.02399696 81.9168527,4.73939732 C81.8666292,4.45479768 81.8046879,4.21540276 81.7310268,4.02120536 C81.5970975,3.68638225 81.4029031,3.39174234 81.1484375,3.13727679 C80.8939719,2.88281123 80.599332,2.68861674 80.2645089,2.5546875 C80.0703115,2.48102642 79.8309166,2.41908507 79.546317,2.36886161 C79.2617173,2.31863814 78.9168547,2.28515633 78.5117188,2.26841518 C78.1065828,2.25167402 77.7834833,2.24162948 77.5424107,2.23828125 C77.3013381,2.23493302 76.9464309,2.23660711 76.4776786,2.24330357 Z M83.3783482,5.38727679 C83.4118305,5.97656545 83.4285714,7.03793876 83.4285714,8.57142857 C83.4285714,10.1049184 83.4118305,11.1662917 83.3783482,11.7555804 C83.3113836,13.1484445 82.8962092,14.2265587 82.1328125,14.9899554 C81.3694158,15.753352 80.2913016,16.1685265 78.8984375,16.2354911 C78.3091488,16.2689734 77.2477755,16.2857143 75.7142857,16.2857143 C74.1807959,16.2857143 73.1194226,16.2689734 72.5301339,16.2354911 C71.1372698,16.1685265 70.0591556,15.753352 69.2957589,14.9899554 C68.5323623,14.2265587 68.1171878,13.1484445 68.0502232,11.7555804 C68.0167409,11.1662917 68,10.1049184 68,8.57142857 C68,7.03793876 68.0167409,5.97656545 68.0502232,5.38727679 C68.1171878,3.99441268 68.5323623,2.91629846 69.2957589,2.15290179 C70.0591556,1.38950511 71.1372698,0.974330692 72.5301339,0.907366071 C73.1194226,0.873883761 74.1807959,0.857142857 75.7142857,0.857142857 C77.2477755,0.857142857 78.3091488,0.873883761 78.8984375,0.907366071 C80.2913016,0.974330692 81.3694158,1.38950511 82.1328125,2.15290179 C82.8962092,2.91629846 83.3113836,3.99441268 83.3783482,5.38727679 Z" id="instagram"></path>
                    </g>
                </g>
            </g>
        </g>
    </g>
</svg>