<?xml version="1.0" encoding="UTF-8"?>
<svg width="85px" height="126px" viewBox="0 0 85 126" version="1.1" xmlns="http://www.w3.org/2000/svg" xmlns:xlink="http://www.w3.org/1999/xlink">
    <!-- Generator: Sketch 50.2 (55047) - http://www.bohemiancoding.com/sketch -->
    <title>Group</title>
    <desc>Created with Sketch.</desc>
    <defs></defs>
    <g id="Round-2" stroke="none" stroke-width="1" fill="none" fill-rule="evenodd">
        <g id="1-Home" transform="translate(-880.000000, -1783.000000)" fill="#FF8820">
            <g id="Group-2" transform="translate(190.000000, 1783.000000)">
                <g id="Group" transform="translate(690.000000, 0.000000)">
                    <polygon id="Fill-1" points="0 11 85 11 85 0 0 0"></polygon>
                    <path d="M0,14 L0,126 L38.6297539,126 L38.6297539,109.763599 L47.885906,109.763599 L47.885906,126 L85,126 L85,14 L0,14 Z M68.9261745,37.8757274 L75.8389262,37.8757274 L75.8389262,26.7851035 L68.9261745,26.7851035 L68.9261745,37.8757274 Z M57.5279642,37.8757274 L64.435123,37.8757274 L64.435123,26.7851035 L57.5279642,26.7851035 L57.5279642,37.8757274 Z M46.5715884,37.8757274 L53.48434,37.8757274 L53.48434,26.7851035 L46.5715884,26.7851035 L46.5715884,37.8757274 Z M30.7326622,37.8757274 L37.6454139,37.8757274 L37.6454139,26.7851035 L30.7326622,26.7851035 L30.7326622,37.8757274 Z M20.3635347,37.8757274 L27.2706935,37.8757274 L27.2706935,26.7851035 L20.3635347,26.7851035 L20.3635347,37.8757274 Z M9.16666667,37.8757274 L16.0794183,37.8757274 L16.0794183,26.7851035 L9.16666667,26.7851035 L9.16666667,37.8757274 Z M68.9261745,53.3753985 L75.8389262,53.3753985 L75.8389262,42.2847746 L68.9261745,42.2847746 L68.9261745,53.3753985 Z M57.5279642,53.3753985 L64.435123,53.3753985 L64.435123,42.2847746 L57.5279642,42.2847746 L57.5279642,53.3753985 Z M46.5715884,53.3753985 L53.48434,53.3753985 L53.48434,42.2847746 L46.5715884,42.2847746 L46.5715884,53.3753985 Z M30.7326622,53.3753985 L37.6454139,53.3753985 L37.6454139,42.2847746 L30.7326622,42.2847746 L30.7326622,53.3753985 Z M20.3635347,53.3753985 L27.2706935,53.3753985 L27.2706935,42.2847746 L20.3635347,42.2847746 L20.3635347,53.3753985 Z M9.16666667,53.3753985 L16.0794183,53.3753985 L16.0794183,42.2847746 L9.16666667,42.2847746 L9.16666667,53.3753985 Z M68.9261745,68.8694024 L75.8389262,68.8694024 L75.8389262,57.7787785 L68.9261745,57.7787785 L68.9261745,68.8694024 Z M57.5279642,68.8694024 L64.435123,68.8694024 L64.435123,57.7787785 L57.5279642,57.7787785 L57.5279642,68.8694024 Z M46.5715884,68.8694024 L53.48434,68.8694024 L53.48434,57.7787785 L46.5715884,57.7787785 L46.5715884,68.8694024 Z M30.7326622,68.8694024 L37.6454139,68.8694024 L37.6454139,57.7787785 L30.7326622,57.7787785 L30.7326622,68.8694024 Z M20.3635347,68.8694024 L27.2706935,68.8694024 L27.2706935,57.7787785 L20.3635347,57.7787785 L20.3635347,68.8694024 Z M9.16666667,68.8694024 L16.0794183,68.8694024 L16.0794183,57.7787785 L9.16666667,57.7787785 L9.16666667,68.8694024 Z M68.9261745,84.3577392 L75.8389262,84.3577392 L75.8389262,73.2671153 L68.9261745,73.2671153 L68.9261745,84.3577392 Z M57.5279642,84.3577392 L64.435123,84.3577392 L64.435123,73.2671153 L57.5279642,73.2671153 L57.5279642,84.3577392 Z M46.5715884,84.3577392 L53.48434,84.3577392 L53.48434,73.2671153 L46.5715884,73.2671153 L46.5715884,84.3577392 Z M30.7326622,84.3577392 L37.6454139,84.3577392 L37.6454139,73.2671153 L30.7326622,73.2671153 L30.7326622,84.3577392 Z M20.3635347,84.3577392 L27.2706935,84.3577392 L27.2706935,73.2671153 L20.3635347,73.2671153 L20.3635347,84.3577392 Z M9.16666667,84.3577392 L16.0794183,84.3577392 L16.0794183,73.2671153 L9.16666667,73.2671153 L9.16666667,84.3577392 Z M68.9261745,99.8517432 L75.8389262,99.8517432 L75.8389262,88.7611193 L68.9261745,88.7611193 L68.9261745,99.8517432 Z M57.5279642,99.8517432 L64.435123,99.8517432 L64.435123,88.7611193 L57.5279642,88.7611193 L57.5279642,99.8517432 Z M46.5715884,99.8517432 L53.48434,99.8517432 L53.48434,88.7611193 L46.5715884,88.7611193 L46.5715884,99.8517432 Z M30.7326622,99.8517432 L37.6454139,99.8517432 L37.6454139,88.7611193 L30.7326622,88.7611193 L30.7326622,99.8517432 Z M20.3635347,99.8517432 L27.2706935,99.8517432 L27.2706935,88.7611193 L20.3635347,88.7611193 L20.3635347,99.8517432 Z M9.16666667,99.8517432 L16.0794183,99.8517432 L16.0794183,88.7611193 L9.16666667,88.7611193 L9.16666667,99.8517432 Z M53.7751678,116.898548 L68.9261745,116.898548 L68.9261745,112.925872 L53.7751678,112.925872 L53.7751678,116.898548 Z M14.7818792,116.898548 L29.9272931,116.898548 L29.9272931,112.925872 L14.7818792,112.925872 L14.7818792,116.898548 Z" id="Fill-2"></path>
                </g>
            </g>
        </g>
    </g>
</svg>