<?xml version="1.0" encoding="UTF-8"?>
<svg width="100px" height="76px" viewBox="0 0 100 76" version="1.1" xmlns="http://www.w3.org/2000/svg" xmlns:xlink="http://www.w3.org/1999/xlink">
    <!-- Generator: Sketch 50.2 (55047) - http://www.bohemiancoding.com/sketch -->
    <title>store</title>
    <desc>Created with Sketch.</desc>
    <defs></defs>
    <g id="Round-2" stroke="none" stroke-width="1" fill="none" fill-rule="evenodd">
        <g id="1-Home" transform="translate(-671.000000, -1833.000000)" fill="#FF8820" fill-rule="nonzero">
            <g id="Group-2" transform="translate(190.000000, 1783.000000)">
                <g id="store" transform="translate(481.000000, 50.000000)">
                    <path d="M95.5388995,27 L3.46110048,27 L3.46110048,70.6459896 L0,70.6459896 L0,76 L99,76 L99,70.6459896 L95.5388995,70.6459896 L95.5388995,27 Z M52.0661254,32.498069 L66.8166865,32.498069 L66.8166865,39.6887011 L52.0661254,39.6887011 L52.0661254,32.498069 Z M32.1833135,32.498069 L46.9338746,32.498069 L46.9338746,39.6887011 L32.1833135,39.6887011 L32.1833135,32.498069 Z M27.0510627,39.6887011 L12.3005016,39.6887011 L12.3005016,32.498069 L27.0510627,32.498069 L27.0510627,39.6887011 Z M38.3780521,67.6762241 L30.79773,67.6762241 L30.79773,51.7394284 L38.3780521,51.7394284 L38.3780521,67.6762241 Z M48.319458,67.6762241 L40.739136,67.6762241 L40.739136,51.7394284 L48.319458,51.7394284 L48.319458,67.6762241 Z M58.260864,67.6762241 L50.680542,67.6762241 L50.680542,51.7394284 L58.260864,51.7394284 L58.260864,67.6762241 Z M68.20227,67.6762241 L60.6219479,67.6762241 L60.6219479,51.7394284 L68.20227,51.7394284 L68.20227,67.6762241 Z M86.6994984,39.6887011 L71.9489373,39.6887011 L71.9489373,32.498069 L86.6994984,32.498069 L86.6994984,39.6887011 Z" id="Shape"></path>
                    <path d="M40.486708,18.1082724 L40.486708,12.9104437 L45.8020188,12.9104437 L45.8020188,0 L5.51369178,0 L5.51369178,12.9104437 L10.8290026,12.9104437 L10.8290026,18.1082724 L0,18.1082724 L0,24 L100,24 L100,18.1082724 L40.486708,18.1082724 Z M36.4328903,2.91970742 L40.486708,2.91970742 L40.486708,4.15056693 L37.9252449,4.15056693 L37.9252449,5.70636933 L40.3085649,5.70636933 L40.3085649,6.93748035 L37.9252449,6.93748035 L37.9252449,8.76490684 L40.486708,8.76490684 L40.486708,10.005072 L36.4328903,10.005072 L36.4328903,2.91970742 Z M29.9242954,2.91970742 L31.975065,2.91970742 C32.9312413,2.91970742 33.6393164,3.09475405 34.0980412,3.44535032 C34.5572656,3.7964496 34.7868779,4.32838011 34.7868779,5.04265085 C34.7868779,5.45914111 34.6726964,5.83010919 34.4445833,6.15480058 C34.21672,6.47924046 33.8944134,6.73401379 33.4771637,6.91786306 C34.5357785,8.51063651 35.226614,9.53953849 35.5471717,10.004569 L33.8914152,10.004569 L32.2109234,7.28581309 L31.4161503,7.28581309 L31.4161503,10.004569 L29.9240456,10.004569 L29.9240456,2.91970742 L29.9242954,2.91970742 Z M22.6329202,3.74086727 C23.2118229,3.11914992 24.0425745,2.80829124 25.1244253,2.80829124 C26.2057765,2.80829124 27.0327803,3.12141345 27.6059364,3.74841238 C28.1788427,4.37541131 28.4651709,5.27654937 28.4651709,6.45258106 C28.4651709,7.6253432 28.1763442,8.52673276 27.5986908,9.15674973 C27.0210374,9.78676671 26.1930342,10.1019009 25.1146812,10.1019009 C24.0360784,10.1019009 23.208325,9.78676671 22.6306716,9.15674973 C22.0530182,8.52673276 21.7639416,7.62207365 21.7639416,6.44252091 C21.7636918,5.26397418 22.0537677,4.36283612 22.6329202,3.74086727 Z M15.6785928,2.91970742 L20.993404,2.91970742 L20.993404,4.16993272 L19.0823006,4.16993272 L19.0823006,10.004569 L17.5894463,10.004569 L17.5894463,4.16993272 L15.6785928,4.16993272 L15.6785928,2.91970742 Z M10.5029482,9.67560204 L10.5029482,8.27950454 C10.9779133,8.49328275 11.379922,8.64317901 11.7089746,8.73019932 C12.0380272,8.81772263 12.3388467,8.86123279 12.6114331,8.86123279 C12.9389866,8.86123279 13.1898361,8.79810534 13.364981,8.67210194 C13.5401259,8.54609855 13.6275735,8.35872823 13.6275735,8.11024249 C13.6275735,7.9711609 13.5888467,7.84792405 13.5118929,7.73927441 C13.434939,7.63137929 13.3217569,7.52675371 13.1725964,7.42690671 C13.0231861,7.32680821 12.7191185,7.1668518 12.2601439,6.947289 C11.8296522,6.74331943 11.5075954,6.5481525 11.2922247,6.36078218 C11.0773536,6.17341186 10.9054567,5.95535808 10.7772836,5.70636933 C10.6486108,5.45763209 10.5843994,5.16689372 10.5843994,4.83390271 C10.5843994,4.20740679 10.7957725,3.71471088 11.2175195,3.35581498 C11.640016,2.99717058 12.2231661,2.81784839 12.9677194,2.81784839 C13.3334999,2.81784839 13.6825405,2.86135854 14.0145912,2.94888186 C14.3468919,3.03590217 14.6941835,3.15888751 15.0569658,3.31683189 L14.5752548,4.48506696 C14.1997302,4.33014063 13.8894164,4.2217425 13.6440636,4.16012408 C13.3982111,4.09900866 13.1568559,4.06832519 12.9192485,4.06832519 C12.6364181,4.06832519 12.420048,4.13472219 12.2691385,4.26701318 C12.1184789,4.39955568 12.0430242,4.57233878 12.0430242,4.78561398 C12.0430242,4.91840798 12.073256,5.03359671 12.1344693,5.1321862 C12.1954327,5.23077568 12.2926244,5.32609561 12.4257945,5.418146 C12.5587148,5.51019638 12.8742754,5.67568587 13.3714771,5.91511747 C14.0295823,6.23176074 14.4803118,6.54915851 14.7246652,6.8673108 C14.9687687,7.18571459 15.0906956,7.57529395 15.0906956,8.0375579 C15.0906956,8.67713202 14.8618329,9.1813971 14.4046072,9.54959864 C13.9471317,9.91830319 13.3110134,10.1021525 12.4955027,10.1021525 C11.744953,10.1019009 11.0803518,9.95954981 10.5029482,9.67560204 Z M38.4429342,18.1082724 L12.8727763,18.1082724 L12.8727763,12.9104437 L38.4429342,12.9104437 L38.4429342,18.1082724 Z" id="Shape"></path>
                    <path d="M32.6380212,5.75170728 C32.8790723,5.58696745 33,5.32711467 33,4.97293716 C33,4.62138709 32.8766591,4.37151854 32.6305135,4.22306877 C32.384636,4.07435626 32.0025473,4 31.4861241,4 L31,4 L31,6 L31.5169594,5.99999937 C32.0237297,6.00026212 32.3972382,5.91776083 32.6380212,5.75170728 Z" id="Shape"></path>
                    <path d="M25.0001399,9 C26.3335665,9 27,8.16719243 27,6.50262881 C27,4.83412198 26.3366441,4 25.0110513,4 C24.3460166,4 23.8443729,4.21030494 23.5063999,4.63065195 C23.1689865,5.05152471 23,5.67534175 23,6.50236593 C23,7.32939012 23.167028,7.95268139 23.5013639,8.37171399 C23.8351402,8.7904837 24.3348255,9 25.0001399,9 Z" id="Shape"></path>
                </g>
            </g>
        </g>
    </g>
</svg>