
        <svg xmlns="http://www.w3.org/2000/svg" xmlns:xlink="http://www.w3.org/1999/xlink" version="1.1" width="3180.1801801801803" 
        height="1333.3333333333335" viewBox="0 0 3180.1801801801803 1333.3333333333335">
			
			<g transform="scale(9.00900900900901) translate(10, 10)">
				<defs id="SvgjsDefs1033"></defs><g id="SvgjsG1034" featureKey="rootContainer" transform="matrix(1,0,0,1,0,0)" fill="#2c5f84"><rect xmlns="http://www.w3.org/2000/svg" width="333" height="128" rx="10" ry="10"></rect></g><g id="SvgjsG1035" featureKey="T16ghp-0" transform="matrix(0.9959078880284159,0,0,0.9959078880284159,15.579899404340336,14.172729415656349)" fill="#e3edfd"><g xmlns="http://www.w3.org/2000/svg"><g><g><g><path d="M51.5,85.2c-0.4-0.5-0.8-0.2-0.8-0.5c-2.4,0.6-6.9-1-8.8-0.8c0.4-0.6-0.6-0.5-0.6-0.9c-0.4,0.6-0.8,0-1.4,0.2      c-0.6-1.5-3-0.4-3.3-2.3c-1.4,0-1.9-0.8-3.3-1.6c0.1-0.1,0.2-0.1,0.3-0.2c-0.7-0.1-0.7-0.5-1.3-0.5l0.2-0.4      c-1.1-0.2-1.5-1.9-3.1-2.5c-0.5-0.1-1.6-1.8-2.2-2.2c-0.3-0.2-0.8-0.2-0.1-0.3c-0.1-0.1-0.1-0.3,0-0.4c-0.7-0.2-0.8-0.8-1.7-1.1      c-0.1-0.3,0.2-0.5,0-0.7c-0.2-0.1-0.5,0.1-0.7,0c-0.1,1.8,1.9,2,2.5,3.5c-0.2-0.2-0.5-0.8-0.7-0.4c-0.1,0.3,0.8,1.4,0.8,0.8      c-0.3,0.2-0.4-0.3-0.2-0.4c0.3,0.5,0.9,0.4,0.9,0.8c-0.3,0.3-0.7-0.3-0.6,0.2c0.9,0.5,0.8,1,1.3,1.7c-0.4-0.5-0.5,0.4-0.9,0      c-0.1-1.5-1.8-1.2-1.8-2.7c-0.2-0.5-0.4-0.1-0.7-0.3c0.4-0.4-1.2-1.8-1.2-1.3c-0.5-0.6-0.2-0.8-0.3-1.2      c-0.4-0.1-0.1,0.4-0.4,0.1c0.4-0.7-0.5-1.6-1.1-2.3l0.4-0.2c-0.7-0.4-0.8-1.2-1.3-2.1c-0.6,0.9,1.2,2.9,0.9,3.3      c0,0.1,0.7,0.9,0.9,1.3c0.8,1.4,1.4,3.1,2.5,3.9c-0.2-0.1-0.1-0.7,0.2-0.4c0,0.3-0.2,0.6-0.2,0.9c0.6,0.6,1.1,1.1,1.7,1.7      c-1.3-0.8-2.6-1.6-3.5-2.8c0.5-0.1,1,0.8,1.4,0.7c-1-0.8-0.7-1.1-1.1-2.1c-0.4-0.3,0.1,0.4-0.3,0.5c-1.3-1.2-2.3-1.9-2.9-3      c0.1-0.1,0.2-0.2,0.2-0.4c-0.1-0.1-0.1-0.1-0.2-0.2c0.6,0.6,0.8,1.1,1.5,1.2c-0.3-0.3,0-0.4-0.4-0.7c-0.2-0.4-0.5,0.2-0.7-0.1      c0.2-0.3,0-0.7,0-1c-0.2,0-0.4,0-0.5-0.3c-0.2-0.1-0.3,0-0.4,0.2c-0.1-0.1-0.1-0.3-0.2-0.4c0,0,0-0.1,0-0.1      c-0.1-0.1-0.2-0.3-0.3-0.4c-0.8-2.1-1.3-4.9-2.4-6.7c0.3-1.2-0.2-3.6-0.5-4.2c0.3-0.5,0.1-2.8-0.1-3.2c-0.5,0.2,0.1,1.3-0.4,1.6      c-0.5-2.2,0.3-4.7,0.1-6.7c0.2,0,0.4,0,0.4-0.1c-0.3-0.3,0.2-0.9,0.1-1.6c0.4-0.9-0.9,1.3-0.9,2.2c-0.1,0.2-0.5,0-0.4,0.5      c0,0.7,0.2,2.1-0.2,3.1c-0.2,0-0.2-0.2-0.4-0.1c-0.1,0.5-0.2,1.1-0.3,1.6c-0.1-0.2-0.2-0.5-0.2-0.6c-0.5-2.5,0-5.4-0.2-7.5      c0.4,0,0.4-0.6,0.7-0.8c-0.1,0.8-0.3,1.8,0.2,2c0.4-3.9,1.2-8.2,3-12.4c1.3-3.1,3.2-6.2,5.5-8.7c0.2,0.3-0.1,1,0,1.3      c2-2.1,3.3-4.6,5.5-6c0.1,0.5-0.9,0.9-0.9,1.3c0.9-0.9,1.2-0.6,2.2-0.9c0.3-0.4-0.4,0-0.5-0.4c0.6-0.4,1-0.9,1.4-1.2      c0,0.1-0.1,0.1-0.1,0.2c1.1-0.3,1.2-0.9,2-1.1c-0.1-0.1-0.3-0.2-0.6-0.1c0.2-0.1,0.5-0.3,0.8-0.4c-0.1,0-0.1,0.1-0.2,0.1      c0.6-0.3,0.1,0.1,0.1,0.3c0.1,0,0.2-0.1,0.2-0.1c-0.6,0.4-1,0.6-1.2,1.3c0.3-0.2,0.4,0,0.8-0.3c0.4-0.2-0.1-0.5,0.2-0.7      c0.3,0.2,0.7,0.1,1,0.1c0-0.2,0.1-0.4,0.3-0.5c0.1-0.2,0-0.3-0.1-0.3c0.1-0.1,0.2-0.1,0.4-0.2c0,0,0.1,0,0.1,0.1      c1.7-0.8,3.6-1.5,5.4-2.1c1.1-0.1,2.5-0.1,3.1-0.8c-0.2,0-0.4,0.1-0.5,0c0.1,0,0.3-0.1,0.4-0.1c0.2,0.2,0.5,0,0.2,0.4      c0.1,0,0.1,0,0.2-0.1c0,0.1,0,0.1,0.1,0.2c0.1,0,0.2-0.1,0.3-0.3c0.1,0,0.2,0,0.3-0.1c0,0-0.1,0.1-0.1,0.1      c0.8-0.2,1.5-0.1,2.6-0.3c0-0.1,0-0.2,0-0.3c0.2,0,0.3-0.1,0.5-0.1c0,0,0,0.1,0,0.1c0.4-0.2,0.8,0.2,0.8,0c0.1,0,0.1,0,0.2,0      c0,0.2-0.1,0.3-0.1,0.4c0.5,0,0.8,0,1-0.3c-0.1-0.1-0.2-0.1-0.3-0.1c0.2,0,0.4-0.1,0.6-0.2c0.3,0.1,0.4,0.2,0.4,0.6      c0.5-0.9,2.1,0.2,2.8,0c0.3,0,0.2-0.4,0.4-0.6c0.1,0,0.2,0,0.3,0c0.5,0.4,1.2,0.8,2.1,0.9c-0.8-0.2,0.1-0.3,0.2-0.4      c-0.2,0-0.2-0.1-0.2-0.2c0.3,0,0.6,0.1,0.9,0.1c0,0.2,0.1,0.3,0.3,0.3c0.2,0,0.2-0.1,0.2-0.3c0.3,0,0.5,0,0.8,0.1      c-0.1,0.4,0.5,0.5,0.7,0.8c-0.8-0.2-1.7-0.5-2,0c3.2,0.7,6.7,1.7,10.1,3.4c0,0,0,0,0,0.1c0,0,0.1,0,0.1,0      c0.6,0.3,1.2,0.6,1.8,0.9c0.4,0.2,0.7,0.4,1.1,0.7c0,0.1,0,0.2,0.2,0.2c0,0,0.1,0,0.1,0c0.4,0.3,0.8,0.5,1.2,0.8      c0.4,0.6,0.8,1.4,1.5,1.2c1.5,2.3,3.1,3.2,4.4,5.6c0.1-0.4,0.4,0.9,0.9,1c-0.8-0.1,0.5,0.5-0.3,0.4c0.7,0.7,0.9,1,1,1.8      c-0.2-0.4-0.3-0.5-0.4-0.1c-0.1,0.6,0.7-0.1,1,0.5c-0.6,0-0.4,0.4-0.3,0.9c0.3-0.3,0.2-0.6,0.5-0.5c0.4,0.4-0.2,0.5-0.1,0.8      c0.3-0.4,0.4-0.2,0.8,0c-0.5,0.1,0.3,0.8-0.3,0.5c0.4,0.5,0.5,0.8,0.3,1.3c-0.4-0.6-0.1-1-0.7-0.9c1.2,1,0.6,3.3,2,3.5      c-0.9,0.2,0,0.6-0.5,0.7c0.6,0.2,0.3,1,1,1.2c-0.1,0.5-0.3,0.8-0.4,1.3c0.3,0.4,0.4,1.2,0.9,1.3c-0.3,0.3-0.1,1.1-0.4,1.4      c0.4-0.2,0.6-0.2,0.9,0.2c-0.5,0.4-0.1,0.8-0.4,0.9c0.9,2.3-0.2,7,0.3,8.8c-0.6-0.3-0.4,0.7-0.8,0.7c0.7,0.3,0.1,0.8,0.4,1.3      c-1.4,0.8,0,3-1.9,3.5c0.2,1.4-0.6,2-1.2,3.5c-0.1-0.1-0.1-0.2-0.2-0.3c-0.1,0.7-0.5,0.8-0.3,1.4l-0.4-0.2      c0,1.1-1.7,1.7-2.1,3.4c-0.1,0.5-1.6,1.8-2,2.5c-0.2,0.3-0.1,0.8-0.3,0.1c-0.1,0.1-0.3,0.1-0.4,0.1c-0.1,0.7-0.7,0.9-0.9,1.8      c-0.2,0.1-0.5-0.2-0.7,0.1c0,0.2,0.2,0.5,0.1,0.7c1.8-0.1,1.8-2.2,3.2-2.9c-0.1,0.3-0.7,0.6-0.3,0.8c0.3,0,1.2-1,0.7-0.9      c0.3,0.2-0.3,0.4-0.4,0.3c0.5-0.4,0.3-0.9,0.7-1c0.3,0.2-0.3,0.7,0.3,0.6c0.4-0.9,0.9-1,1.5-1.5c-0.4,0.4,0.5,0.5,0.1,0.9      c-1.5,0.3-1,2-2.5,2.2c-0.4,0.3-0.1,0.4-0.2,0.7c-0.5-0.3-1.6,1.4-1.2,1.3c-0.5,0.5-0.8,0.3-1.2,0.4c-0.1,0.4,0.4,0.1,0.2,0.4      c-0.7-0.3-1.6,0.7-2.2,1.4l-0.3-0.3c-0.3,0.8-1.1,0.9-2,1.5c1,0.5,2.7-1.6,3.2-1.3c0.1,0,0.9-0.8,1.2-1.1c1.3-1,2.9-1.8,3.5-2.9      c-0.1,0.2-0.7,0.2-0.4-0.1c0.3-0.1,0.6,0.1,0.9,0.1c1.6-2.2,3.6-4,5.1-6.6c0.1-0.1,0.2-0.3,0.3-0.5c-0.2,0.6-0.5,1.1-0.7,1.7      c-1.6,1.1-2.2,4.3-4.1,4.8c0.1,1.1-0.9,1.4-1.4,2.7c-0.3,0.4-0.5-0.3-0.8,0.2c0.3,1.4-2.5,1.3-2.4,2.6c-0.2,0.1-0.5,0.2-0.7,0.4      c0,0-0.1,0-0.1,0c-0.1,0.1-0.1,0.1-0.2,0.2c-0.5,0.3-0.9,0.6-1.3,0.9c-1.4,0.8-3.3,1.4-4.8,2.2c0,0,0-0.1,0-0.1      c-0.4,0.2-0.9,0.1-0.8,0.5c-0.3,0.2-0.6,0.4-0.9,0.6c-0.1,0-0.1,0-0.2,0c0,0-0.1-0.1-0.2-0.1c-0.2,0-0.2,0-0.3,0.1      c-1.3,0.1-3,0.7-3.5,1.1c-0.5-0.3-2.8,0.2-3.2,0.4c0.2,0.3,0.8,0,1.3,0c-0.3,0.1-0.6,0.2-0.7,0.4c-0.1,0-0.1,0-0.2,0      c-0.1-0.3-0.4,0-0.5-0.1c0,0,0.1,0,0.1,0c-0.1-0.4-0.4-0.6-0.9-0.5c0,0.2,0,0.3-0.1,0.5c0.2,0,0.8-0.3,0.8,0      c-0.1,0-0.1,0.1,0,0.1c-0.2,0.2-0.5,0.2-0.7,0.3c-0.4,0-0.9,0-1.3,0c-0.1-0.1-0.2-0.1-0.4-0.2c-0.1,0.1-0.3,0.1-0.4,0.2      c-0.6,0-1.3,0.1-1.8,0.2c0-0.2,0-0.4-0.2-0.4c-0.3,0.4-0.9-0.1-1.6,0.1c-0.7-0.2,0.4,0.3,1.4,0.5C51.9,85,51.8,85.1,51.5,85.2       M37.5,86.6c-1.4-1.3-4.3-1.9-4.8-2.9c-0.8-0.1-2-1.6-3-1.8c0.5,0,0.1-0.3,0-0.5c-0.2,0.2-0.4,0.3-0.6,0.3      c0-0.8-0.8-1.3-1.5-1.8c0.5,0.3,0.9,0.5,1.5,0.6c0-0.2,0-0.4,0.2-0.4c0.7,0.7,1.5,1.4,2.4,2.1c1.2,1.1,7.4,3.9,8.5,4.4      c0,0-0.2,0.4-0.1,0.4c0.5,0.3,0.9-0.3,1,0.4C39.5,87.6,38.9,86.5,37.5,86.6 M83.6,63.4c0,0,0,0.1,0,0.1c0,0,0,0,0,0      C83.5,63.5,83.6,63.4,83.6,63.4 M43.2,17.1c-0.1,0.1-0.2,0.1-0.2,0.1C43,17.1,43.1,17.1,43.2,17.1 M41.3,17.6      C41.3,17.7,41.3,17.7,41.3,17.6C41.3,17.7,41.3,17.7,41.3,17.6C41.3,17.7,41.3,17.6,41.3,17.6 M34.7,19.7      C34.7,19.7,34.7,19.7,34.7,19.7c0.1-0.1,0.1-0.1,0.2-0.1C34.8,19.6,34.7,19.7,34.7,19.7 M50.7,16.4c-0.2,0-0.3,0-0.4-0.1      c0.1,0,0.2,0,0.3,0c0,0,0.1,0,0.1,0C50.7,16.3,50.7,16.3,50.7,16.4 M52.5,16.6c-0.1-0.1-0.4-0.2-0.7-0.2c0-0.1,0.1-0.2,0.1-0.2      c0.1,0,0.2,0,0.3,0c0,0,0.1,0,0.1,0.1c0,0,0,0,0-0.1c0.1,0,0.1,0,0.2,0C52.6,16.4,52.7,16.5,52.5,16.6 M55.8,16.9      c-0.5,0.1-0.8-0.1-1.3-0.4c0.3,0,0.7,0.1,1,0.2C55.6,16.7,55.7,16.8,55.8,16.9 M91.4,31.1c-0.2,0.1-0.3,0.1-0.5-0.3      c-1.6-3.4-4.5-8.3-8.7-12.4c-4.1-4.2-9.6-7.6-14.6-9.4c0.3,0.1,0.7,0.3,0.5,0.5c-4.4-1.7-8.6-2.7-12.6-3.1      C44.7,4.7,33.4,7,24.7,12.6c0.1,0.2,0.1,0.3-0.2,0.5c-3.2,2-7.7,5.5-11.3,10.1c-3.6,4.6-6.4,10.4-7.6,15.6      C5.7,38.5,5.8,38,6,38.2C3.4,48.5,4.1,57.3,7.7,64.9c0.2-0.2-0.5-1.2,0.1-1.1c0.4,1.1,0.9,2.3,1.5,3.4c0.7,1.6,1.5,3.7,2.6,4.2      C9.1,65.9,7.2,59.6,7,54c0.4,0.8,0.3,2.5,0.9,3.2c0.2-3.8-0.7-8.9,0.6-12.5c-0.3,1.9-0.5,4.5-0.3,7.1c0,1.9,0.9,7.2,1.5,7.7      c-0.1-0.1-0.1-0.6,0-0.6c0.3,0.6-0.4,0.9,0.1,1c0-0.2,0.1-0.2,0.2-0.2c1,2.2,2.3,5.6,3.3,7.3c1.2,2.2,2.8,4.2,4.6,6      c0,0.1,0.1,0.1,0.1,0.2c0.2,0.5,0.9,1.1,1.1,1.5c0.1,0.2-0.1,0.5,0,0.7c1.5,2.8,3.7,5.6,6.4,7.8c1.7,2,4.4,4.1,7.7,5.9      c3.2,1.7,6.9,3.1,10.3,3.9c2.4,0.6,5.3,0.7,7.1,1.1c2.4,0.5,6.6-0.2,8.7-0.6c12.6-1.9,25.1-10.5,31.4-22.9      C97.2,58.1,97,42.8,91.4,31.1"></path></g></g></g></g></g><g id="SvgjsG1036" featureKey="Fok8m0-0" transform="matrix(1.7764808525676892,0,0,1.7764808525676892,129.2590478835079,33.65570946179767)" fill="#e2effc"><path d="M12 9.84 l-1.82 0 c-0.1 -2.22 -1.94 -2.92 -3.56 -2.92 c-1.22 0 -3.28 0.34 -3.28 2.52 c0 1.22 0.86 1.62 1.7 1.82 l4.1 0.94 c1.86 0.44 3.26 1.56 3.26 3.84 c0 3.4 -3.16 4.34 -5.62 4.34 c-2.66 0 -3.7 -0.8 -4.34 -1.38 c-1.22 -1.1 -1.46 -2.3 -1.46 -3.64 l1.82 0 c0 2.6 2.12 3.36 3.96 3.36 c1.4 0 3.76 -0.36 3.76 -2.42 c0 -1.5 -0.7 -1.98 -3.06 -2.54 l-2.94 -0.68 c-0.94 -0.22 -3.06 -0.88 -3.06 -3.38 c0 -2.24 1.46 -4.44 4.94 -4.44 c5.02 0 5.52 3 5.6 4.58 z M21.759999999999998 16.72 l1.76 0 c-0.06 0.5 -0.54 1.98 -1.86 2.86 c-0.48 0.32 -1.16 0.72 -2.84 0.72 c-2.94 0 -4.68 -2.22 -4.68 -5.24 c0 -3.24 1.56 -5.82 5.02 -5.82 c3.02 0 4.5 2.4 4.5 6.1 l-7.64 0 c0 2.18 1.02 3.44 3.04 3.44 c1.66 0 2.64 -1.28 2.7 -2.06 z M16.02 13.940000000000001 l5.82 0 c-0.1 -1.62 -0.78 -3.12 -2.92 -3.12 c-1.62 0 -2.9 1.5 -2.9 3.12 z M34 13.059999999999999 l-1.7 0 c-0.22 -1.4 -1 -2.24 -2.48 -2.24 c-2.18 0 -2.88 2.08 -2.88 3.94 c0 1.8 0.44 4.02 2.86 4.02 c1.18 0 2.2 -0.88 2.5 -2.48 l1.7 0 c-0.18 1.66 -1.2 4 -4.26 4 c-2.94 0 -4.68 -2.22 -4.68 -5.24 c0 -3.24 1.56 -5.82 5.02 -5.82 c2.74 0 3.78 2 3.92 3.82 z M44.24 20 l-1.66 0 l0 -1.52 l-0.04 -0.04 c-0.74 1.22 -1.64 1.86 -3.32 1.86 c-1.54 0 -3.4 -0.74 -3.4 -3.24 l0 -7.52 l1.76 0 l0 6.94 c0 1.72 0.88 2.3 2.02 2.3 c2.22 0 2.88 -1.96 2.88 -3.48 l0 -5.76 l1.76 0 l0 10.46 z M48.879999999999995 13.92 l0 6.08 l-1.76 0 l0 -10.46 l1.66 0 l0 1.74 l0.04 0 c0.7 -1.22 1.62 -2.04 2.94 -2.04 c0.22 0 0.32 0.02 0.46 0.06 l0 1.82 l-0.66 0 c-1.64 0 -2.68 1.28 -2.68 2.8 z M60.66 16.72 l1.76 0 c-0.06 0.5 -0.54 1.98 -1.86 2.86 c-0.48 0.32 -1.16 0.72 -2.84 0.72 c-2.94 0 -4.68 -2.22 -4.68 -5.24 c0 -3.24 1.56 -5.82 5.02 -5.82 c3.02 0 4.5 2.4 4.5 6.1 l-7.64 0 c0 2.18 1.02 3.44 3.04 3.44 c1.66 0 2.64 -1.28 2.7 -2.06 z M54.919999999999995 13.940000000000001 l5.82 0 c-0.1 -1.62 -0.78 -3.12 -2.92 -3.12 c-1.62 0 -2.9 1.5 -2.9 3.12 z M72.78 8.1 l-3.32 11.9 l-2.04 0 l-3.74 -14.36 l2.1 0 l2.68 11.68 l0.04 0 l3.22 -11.68 l2.12 0 l3.22 11.68 l0.04 0 l2.68 -11.68 l2.14 0 l-3.78 14.36 l-2.04 0 l-3.28 -11.9 l-0.04 0 z M82.94 14.76 c0 -2.7 1.52 -5.52 4.86 -5.52 s4.86 2.82 4.86 5.52 s-1.52 5.52 -4.86 5.52 s-4.86 -2.82 -4.86 -5.52 z M84.75999999999999 14.76 c0 1.4 0.52 4 3.04 4 s3.04 -2.6 3.04 -4 s-0.52 -4 -3.04 -4 s-3.04 2.6 -3.04 4 z M103.18 12.879999999999999 l0 7.12 l-1.76 0 l0 -6.44 c0 -1.82 -0.52 -2.74 -2.24 -2.74 c-1 0 -2.76 0.64 -2.76 3.48 l0 5.7 l-1.76 0 l0 -10.46 l1.66 0 l0 1.48 l0.04 0 c0.38 -0.56 1.36 -1.78 3.16 -1.78 c1.62 0 3.66 0.66 3.66 3.64 z"></path></g><g id="SvgjsG1037" featureKey="TflPBd-0" transform="matrix(0.3985103863833473,0,0,0.3985103863833473,130.95218644772842,78.25452446203505)" fill="#eff0f4"><path d="M9.26 6.279999999999999 l-3.24 0 l0 13.14 c0 0.24 -0.08666 0.44666 -0.26 0.62 s-0.38 0.26 -0.62 0.26 c-0.25334 0 -0.46668 -0.08666 -0.64002 -0.26 s-0.26 -0.38 -0.26 -0.62 l0 -13.14 l-3.24 0 c-0.24 0 -0.44666 -0.08334 -0.62 -0.25 s-0.26 -0.37666 -0.26 -0.63 c0 -0.24 0.08666 -0.44666 0.26 -0.62 s0.38 -0.26 0.62 -0.26 l8.26 0 c0.24 0 0.44666 0.08666 0.62 0.26 s0.26 0.38 0.26 0.62 c0 0.25334 -0.08666 0.46334 -0.26 0.63 s-0.38 0.25 -0.62 0.25 z M29.805999999999997 20.3 c-1.0933 0 -2.12 -0.20666 -3.08 -0.62 s-1.7967 -0.97668 -2.51 -1.69 s-1.2767 -1.55 -1.69 -2.51 s-0.62 -1.9867 -0.62 -3.08 c0 -1.08 0.20666 -2.1 0.62 -3.06 s0.97668 -1.7967 1.69 -2.51 s1.55 -1.2767 2.51 -1.69 s1.9867 -0.62 3.08 -0.62 c1.08 0 2.1 0.20666 3.06 0.62 s1.7967 0.97668 2.51 1.69 s1.2767 1.55 1.69 2.51 s0.62 1.98 0.62 3.06 c0 1.0933 -0.20666 2.12 -0.62 3.08 s-0.97668 1.7967 -1.69 2.51 s-1.55 1.2767 -2.51 1.69 s-1.98 0.62 -3.06 0.62 z M29.805999999999997 6.279999999999999 c-0.84 0 -1.6333 0.16 -2.38 0.48 s-1.4 0.75666 -1.96 1.31 s-1 1.2033 -1.32 1.95 s-0.48 1.54 -0.48 2.38 s0.16 1.6333 0.48 2.38 s0.76 1.4 1.32 1.96 s1.2133 1 1.96 1.32 s1.54 0.48 2.38 0.48 s1.6333 -0.16 2.38 -0.48 s1.3967 -0.76 1.95 -1.32 s0.99 -1.2133 1.31 -1.96 s0.48 -1.54 0.48 -2.38 s-0.16 -1.6333 -0.48 -2.38 s-0.75666 -1.3967 -1.31 -1.95 s-1.2033 -0.99 -1.95 -1.31 s-1.54 -0.48 -2.38 -0.48 z M58.612 6.279999999999999 l-3.24 0 l0 13.14 c0 0.24 -0.08666 0.44666 -0.26 0.62 s-0.38 0.26 -0.62 0.26 c-0.25334 0 -0.46668 -0.08666 -0.64002 -0.26 s-0.26 -0.38 -0.26 -0.62 l0 -13.14 l-3.24 0 c-0.24 0 -0.44666 -0.08334 -0.62 -0.25 s-0.26 -0.37666 -0.26 -0.63 c0 -0.24 0.08666 -0.44666 0.26 -0.62 s0.38 -0.26 0.62 -0.26 l8.26 0 c0.24 0 0.44666 0.08666 0.62 0.26 s0.26 0.38 0.26 0.62 c0 0.25334 -0.08666 0.46334 -0.26 0.63 s-0.38 0.25 -0.62 0.25 z M83.65800000000002 20.22 c-0.10666 0.05334 -0.21992 0.08 -0.33992 0.08 c-0.17334 0 -0.33668 -0.04666 -0.49002 -0.14 s-0.26334 -0.22668 -0.33 -0.40002 l-1.58 -3.72 l-7.26 0 l-1.58 3.72 c-0.09334 0.22666 -0.25334 0.38666 -0.48 0.48 s-0.45332 0.08668 -0.67998 -0.01998 c-0.22666 -0.09334 -0.38666 -0.25334 -0.48 -0.48 s-0.08668 -0.45332 0.01998 -0.67998 l1.8 -4.26 l4.22 -9.88 c0.06666 -0.17334 0.17332 -0.30668 0.31998 -0.40002 s0.31332 -0.14 0.49998 -0.14 c0.17334 0 0.33334 0.04666 0.48 0.14 s0.25332 0.22668 0.31998 0.40002 c1.0133 2.3734 2.02 4.73 3.02 7.07 s2.0066 4.6966 3.02 7.07 c0.09334 0.22666 0.09334 0.45332 0 0.67998 s-0.25334 0.38666 -0.48 0.48 z M77.29800000000002 7.539999999999999 l-2.88 6.72 l5.74 0 z M102.84400000000001 20.3 l-5.34 0 c-0.24 0 -0.44666 -0.08666 -0.62 -0.26 s-0.26 -0.38 -0.26 -0.62 l0 -14.02 c0 -0.25334 0.08666 -0.46334 0.26 -0.63 s0.38 -0.25 0.62 -0.25 c0.25334 0 0.46334 0.08334 0.63 0.25 s0.25 0.37666 0.25 0.63 l0 13.14 l4.46 0 c0.25334 0 0.46668 0.08666 0.64002 0.26 s0.26 0.38 0.26 0.62 s-0.08666 0.44666 -0.26 0.62 s-0.38668 0.26 -0.64002 0.26 z M140.776 6.279999999999999 l-3.24 0 l0 13.14 c0 0.24 -0.08666 0.44666 -0.26 0.62 s-0.38 0.26 -0.62 0.26 c-0.25334 0 -0.46668 -0.08666 -0.64002 -0.26 s-0.26 -0.38 -0.26 -0.62 l0 -13.14 l-3.24 0 c-0.24 0 -0.44666 -0.08334 -0.62 -0.25 s-0.26 -0.37666 -0.26 -0.63 c0 -0.24 0.08666 -0.44666 0.26 -0.62 s0.38 -0.26 0.62 -0.26 l8.26 0 c0.24 0 0.44666 0.08666 0.62 0.26 s0.26 0.38 0.26 0.62 c0 0.25334 -0.08666 0.46334 -0.26 0.63 s-0.38 0.25 -0.62 0.25 z M161.64200000000002 20.3 l-6.88 -0.000019531 c-0.25334 0 -0.46668 -0.08666 -0.64002 -0.26 s-0.26 -0.38 -0.26 -0.62 l0 -0.04 l0 -0.04 l0 -13.94 c0 -0.24 0.08666 -0.44666 0.26 -0.62 s0.38668 -0.26 0.64002 -0.26 l6.88 0 c0.25334 0 0.46668 0.08666 0.64002 0.26 s0.26 0.38 0.26 0.62 c0 0.25334 -0.08666 0.46334 -0.26 0.63 s-0.38668 0.25 -0.64002 0.25 l-6 0 l0 5.1 l5.06 0 c0.24 0 0.44666 0.08334 0.62 0.25 s0.26 0.37666 0.26 0.63 c0 0.24 -0.08666 0.44666 -0.26 0.62 s-0.38 0.26 -0.62 0.26 l-5.06 0 l0 5.38 l6 0 c0.25334 0 0.46668 0.08666 0.64002 0.26 s0.26 0.38668 0.26 0.64002 c0 0.24 -0.08666 0.44666 -0.26 0.62 s-0.38668 0.26 -0.64002 0.26 z M182.668 20.3 c-1.1067 0 -2.1434 -0.21006 -3.11 -0.63006 s-1.81 -0.99 -2.53 -1.71 s-1.29 -1.5633 -1.71 -2.53 s-0.63 -2.0034 -0.63 -3.11 c0 -1.0933 0.21 -2.1166 0.63 -3.07 s0.99 -1.78 1.71 -2.48 s1.5633 -1.25 2.53 -1.65 s2.0034 -0.6 3.11 -0.6 c1.0667 0 2.08 0.19666 3.04 0.59 s1.82 0.97 2.58 1.73 c0.18666 0.18666 0.28 0.4 0.28 0.64 s-0.09334 0.44666 -0.28 0.62 c-0.17334 0.17334 -0.38 0.26 -0.62 0.26 s-0.44666 -0.08666 -0.62 -0.26 c-0.6 -0.6 -1.2733 -1.0533 -2.02 -1.36 s-1.5333 -0.46 -2.36 -0.46 c-0.86666 0 -1.6767 0.15666 -2.43 0.47 s-1.41 0.74 -1.97 1.28 s-1 1.1767 -1.32 1.91 s-0.48 1.5267 -0.48 2.38 s0.16334 1.6567 0.49 2.41 s0.77 1.41 1.33 1.97 s1.2167 1.0033 1.97 1.33 s1.5567 0.49 2.41 0.49 c0.82666 0 1.6133 -0.15334 2.36 -0.46 s1.42 -0.75332 2.02 -1.34 c0.17334 -0.18666 0.38 -0.28 0.62 -0.28 s0.44666 0.09334 0.62 0.28 c0.18666 0.17334 0.28 0.38 0.28 0.62 s-0.09334 0.44666 -0.28 0.62 c-0.76 0.76 -1.62 1.34 -2.58 1.74 s-1.9733 0.6 -3.04 0.6 z M212.39400000000003 20.3 c-0.24 0 -0.44666 -0.08666 -0.62 -0.26 s-0.26 -0.38 -0.26 -0.62 l0 -6.78 l-7.86 0 l0 6.78 c0 0.24 -0.08666 0.44666 -0.26 0.62 s-0.38 0.26 -0.62 0.26 c-0.25334 0 -0.46668 -0.08666 -0.64002 -0.26 s-0.26 -0.38 -0.26 -0.62 l0 -14.02 c0 -0.24 0.08666 -0.44666 0.26 -0.62 s0.38668 -0.26 0.64002 -0.26 c0.24 0 0.44666 0.08666 0.62 0.26 s0.26 0.38 0.26 0.62 l0 5.46 l7.86 0 l0 -5.46 c0 -0.24 0.08666 -0.44666 0.26 -0.62 s0.38 -0.26 0.62 -0.26 c0.25334 0 0.46668 0.08666 0.64002 0.26 s0.26 0.38 0.26 0.62 l0 14.02 c0 0.24 -0.08666 0.44666 -0.26 0.62 s-0.38668 0.26 -0.64002 0.26 z M236.78000000000003 20.3 c-0.33334 0 -0.58668 -0.14 -0.76002 -0.42 l-7.22 -11.44 l0 10.98 c0 0.24 -0.08334 0.44666 -0.25 0.62 s-0.37666 0.26 -0.63 0.26 c-0.24 0 -0.44666 -0.08666 -0.62 -0.26 s-0.26 -0.38 -0.26 -0.62 l0 -14.02 c0 -0.24 0.08666 -0.44666 0.26 -0.62 s0.38 -0.26 0.62 -0.26 c0.33334 0 0.58668 0.13334 0.76002 0.4 l7.22 11.44 l0 -10.96 c0 -0.24 0.08334 -0.44666 0.25 -0.62 s0.37666 -0.26 0.63 -0.26 c0.24 0 0.44666 0.08666 0.62 0.26 s0.26 0.38 0.26 0.62 l0 14.02 c0 0.24 -0.08666 0.44666 -0.26 0.62 s-0.38 0.26 -0.62 0.26 z M258.86600000000004 20.3 c-1.0933 0 -2.12 -0.20666 -3.08 -0.62 s-1.7967 -0.97668 -2.51 -1.69 s-1.2767 -1.55 -1.69 -2.51 s-0.62 -1.9867 -0.62 -3.08 c0 -1.08 0.20666 -2.1 0.62 -3.06 s0.97668 -1.7967 1.69 -2.51 s1.55 -1.2767 2.51 -1.69 s1.9867 -0.62 3.08 -0.62 c1.08 0 2.1 0.20666 3.06 0.62 s1.7967 0.97668 2.51 1.69 s1.2767 1.55 1.69 2.51 s0.62 1.98 0.62 3.06 c0 1.0933 -0.20666 2.12 -0.62 3.08 s-0.97668 1.7967 -1.69 2.51 s-1.55 1.2767 -2.51 1.69 s-1.98 0.62 -3.06 0.62 z M258.86600000000004 6.279999999999999 c-0.84 0 -1.6333 0.16 -2.38 0.48 s-1.4 0.75666 -1.96 1.31 s-1 1.2033 -1.32 1.95 s-0.48 1.54 -0.48 2.38 s0.16 1.6333 0.48 2.38 s0.76 1.4 1.32 1.96 s1.2133 1 1.96 1.32 s1.54 0.48 2.38 0.48 s1.6333 -0.16 2.38 -0.48 s1.3967 -0.76 1.95 -1.32 s0.99 -1.2133 1.31 -1.96 s0.48 -1.54 0.48 -2.38 s-0.16 -1.6333 -0.48 -2.38 s-0.75666 -1.3967 -1.31 -1.95 s-1.2033 -0.99 -1.95 -1.31 s-1.54 -0.48 -2.38 -0.48 z M286.29200000000003 20.3 l-5.34 0 c-0.24 0 -0.44666 -0.08666 -0.62 -0.26 s-0.26 -0.38 -0.26 -0.62 l0 -14.02 c0 -0.25334 0.08666 -0.46334 0.26 -0.63 s0.38 -0.25 0.62 -0.25 c0.25334 0 0.46334 0.08334 0.63 0.25 s0.25 0.37666 0.25 0.63 l0 13.14 l4.46 0 c0.25334 0 0.46668 0.08666 0.64002 0.26 s0.26 0.38 0.26 0.62 s-0.08666 0.44666 -0.26 0.62 s-0.38668 0.26 -0.64002 0.26 z M306.63800000000003 20.3 c-1.0933 0 -2.12 -0.20666 -3.08 -0.62 s-1.7967 -0.97668 -2.51 -1.69 s-1.2767 -1.55 -1.69 -2.51 s-0.62 -1.9867 -0.62 -3.08 c0 -1.08 0.20666 -2.1 0.62 -3.06 s0.97668 -1.7967 1.69 -2.51 s1.55 -1.2767 2.51 -1.69 s1.9867 -0.62 3.08 -0.62 c1.08 0 2.1 0.20666 3.06 0.62 s1.7967 0.97668 2.51 1.69 s1.2767 1.55 1.69 2.51 s0.62 1.98 0.62 3.06 c0 1.0933 -0.20666 2.12 -0.62 3.08 s-0.97668 1.7967 -1.69 2.51 s-1.55 1.2767 -2.51 1.69 s-1.98 0.62 -3.06 0.62 z M306.63800000000003 6.279999999999999 c-0.84 0 -1.6333 0.16 -2.38 0.48 s-1.4 0.75666 -1.96 1.31 s-1 1.2033 -1.32 1.95 s-0.48 1.54 -0.48 2.38 s0.16 1.6333 0.48 2.38 s0.76 1.4 1.32 1.96 s1.2133 1 1.96 1.32 s1.54 0.48 2.38 0.48 s1.6333 -0.16 2.38 -0.48 s1.3967 -0.76 1.95 -1.32 s0.99 -1.2133 1.31 -1.96 s0.48 -1.54 0.48 -2.38 s-0.16 -1.6333 -0.48 -2.38 s-0.75666 -1.3967 -1.31 -1.95 s-1.2033 -0.99 -1.95 -1.31 s-1.54 -0.48 -2.38 -0.48 z M341.04400000000004 17.96 c-0.76 0.76 -1.6234 1.3399 -2.59 1.7399 s-1.99 0.6 -3.07 0.6 c-1.1067 0 -2.1434 -0.21 -3.11 -0.63 s-1.81 -0.99 -2.53 -1.71 s-1.29 -1.5633 -1.71 -2.53 s-0.63 -2.0034 -0.63 -3.11 s0.21 -2.1334 0.63 -3.08 s0.99334 -1.77 1.72 -2.47 s1.5733 -1.25 2.54 -1.65 s1.9967 -0.6 3.09 -0.6 c1.08 0 2.1034 0.2 3.07 0.6 s1.83 0.98 2.59 1.74 c0.17334 0.17334 0.26 0.38 0.26 0.62 s-0.08666 0.44666 -0.26 0.62 c-0.18666 0.18666 -0.4 0.28 -0.64 0.28 s-0.44666 -0.09334 -0.62 -0.28 c-0.6 -0.58666 -1.2733 -1.0367 -2.02 -1.35 s-1.54 -0.47 -2.38 -0.47 c-0.85334 0 -1.6567 0.15334 -2.41 0.46 s-1.41 0.73 -1.97 1.27 s-1.0033 1.18 -1.33 1.92 s-0.49 1.5367 -0.49 2.39 s0.16334 1.6567 0.49 2.41 s0.77 1.41 1.33 1.97 s1.2167 1.0033 1.97 1.33 s1.5567 0.49 2.41 0.49 c0.77334 0 1.5133 -0.13334 2.22 -0.4 s1.3467 -0.65332 1.92 -1.16 l0 -3.76 l-4.04 0 c-0.25334 0 -0.46668 -0.08666 -0.64002 -0.26 s-0.26 -0.38 -0.26 -0.62 c0 -0.25334 0.08666 -0.46668 0.26 -0.64002 s0.38668 -0.26 0.64002 -0.26 l4.92 0 c0.25334 0 0.46668 0.08666 0.64002 0.26 s0.26 0.38668 0.26 0.64002 l0 5.02 c0 0.24 -0.08666 0.44666 -0.26 0.62 z M364.47 5.84 l-4.54 8.12 l0 5.46 c0 0.24 -0.08666 0.44666 -0.26 0.62 s-0.38 0.26 -0.62 0.26 s-0.44666 -0.08666 -0.62 -0.26 s-0.26 -0.38 -0.26 -0.62 l0 -5.46 l-4.54 -8.12 c-0.08 -0.13334 -0.12 -0.28 -0.12 -0.44 c0 -0.24 0.08666 -0.44666 0.26 -0.62 s0.38 -0.26 0.62 -0.26 c0.16 0 0.31 0.04 0.45 0.12 s0.25 0.18666 0.33 0.32 l3.88 6.94 l3.88 -6.94 c0.08 -0.13334 0.19 -0.24 0.33 -0.32 s0.29 -0.12 0.45 -0.12 c0.24 0 0.44666 0.08666 0.62 0.26 s0.26 0.38 0.26 0.62 c0 0.16 -0.04 0.30666 -0.12 0.44 z"></path></g>
			</g>
		</svg>
	