<?xml version="1.0" encoding="UTF-8"?>
<svg width="90px" height="90px" viewBox="0 0 90 90" version="1.1" xmlns="http://www.w3.org/2000/svg" xmlns:xlink="http://www.w3.org/1999/xlink">
    <!-- Generator: Sketch 50.2 (55047) - http://www.bohemiancoding.com/sketch -->
    <title>shop</title>
    <desc>Created with Sketch.</desc>
    <defs></defs>
    <g id="Round-2" stroke="none" stroke-width="1" fill="none" fill-rule="evenodd">
        <g id="1-Home" transform="translate(-473.000000, -1819.000000)" fill="#FF8820" fill-rule="nonzero">
            <g id="Group-2" transform="translate(190.000000, 1783.000000)">
                <g id="shop" transform="translate(283.000000, 36.000000)">
                    <path d="M87.5384353,78.7502983 L84.1997614,78.7502983 L84.1997614,43.6678927 C87.6086586,41.8944769 89.8534174,38.4294637 89.9580706,34.6112675 C89.9665928,34.5239944 90,34.4350168 90,34.3456983 C90,33.9942197 89.9434123,33.6591048 89.8152378,33.3543309 L86.7935913,24.2806602 C86.4445202,23.2384971 85.4753707,22.5000852 84.3763423,22.5000852 L68.3180501,22.5000852 L58.6330322,22.5000852 L58.6330322,17.0455191 L70.8982444,17.0455191 C72.3105505,17.0455191 73.2912903,15.7735825 73.2912903,14.3611908 L73.2912903,2.56535063 C73.2912903,1.15295891 72.3105505,0 70.8982444,0 L19.3236748,0 C17.9113687,-2.36554097e-18 16.7035964,1.15295891 16.7035964,2.56535063 L16.7035964,14.3611908 C16.7035964,15.7735825 17.9113687,17.0455191 19.3236748,17.0455191 L31.0209647,17.0455191 L31.0209647,22.5000852 L21.9038691,22.5000852 L5.84489518,22.5000852 C4.74586671,22.5000852 3.76989944,23.2391789 3.42082836,24.281342 L0.332708369,33.5148997 C0.33100392,33.5200133 0.330322141,33.5343316 0.328617692,33.5391043 C0.26964377,33.7187641 0.229759673,33.9110375 0.212033407,34.1056974 C0.2089654,34.1353566 0.2089654,34.1674021 0.207260951,34.1970614 C0.204533833,34.2458115 0.200102267,34.2952435 0.200102267,34.3446755 C0.200102267,34.3664938 0.201806716,34.3896757 0.201806716,34.4118349 C0.202147605,34.4220622 0.145559911,34.4329713 0.145900801,34.4431986 C0.185444009,38.3271906 2.72711778,41.8685677 5.79512528,43.6678927 L5.79512528,78.7499574 L2.68348389,78.7499574 C1.27117777,78.7499574 0,79.8984845 0,81.3108762 L0,87.4346494 C0,88.8470411 1.27151866,90 2.68348389,90 L87.5384353,90 C88.9507414,90 89.9948867,88.8467002 89.9948867,87.4346494 L89.9948867,81.3108762 C89.9948867,79.8988254 88.9504005,78.7502983 87.5384353,78.7502983 Z M53.5196864,17.0455191 L53.5196864,22.5000852 L52.2587353,22.5000852 L37.9638657,22.5000852 L36.1343106,22.5000852 L36.1343106,17.0455191 L53.5196864,17.0455191 Z M50.0429521,27.613741 L50.6320095,31.7046655 L39.5905914,31.7046655 L40.1799898,27.613741 L50.0429521,27.613741 Z M50.3217999,36.8183213 C49.3141299,38.5228732 47.3898074,39.8865147 45.6611556,39.8865147 L44.5607636,39.8865147 C42.8321118,39.8865147 40.9077893,38.5228732 39.9001193,36.8183213 L50.3217999,36.8183213 Z M66.3010056,27.613741 L67.282768,31.7046655 L55.7975115,31.7046655 L55.208795,27.613741 L66.3010056,27.613741 Z M67.2626555,36.8183213 C66.2549855,38.5228732 64.330663,39.8865147 62.6020112,39.8865147 L61.5026419,39.8865147 C59.774331,39.8865147 57.8503494,38.5228732 56.8423385,36.8183213 L67.2626555,36.8183213 Z M35.013806,27.613741 L34.4244077,31.7046655 L22.9391512,31.7046655 L23.9209136,27.613741 L35.013806,27.613741 Z M33.3795807,36.8183213 C32.3719107,38.5228732 30.4475882,39.8865147 28.7189364,39.8865147 L27.6192262,39.8865147 C25.8905744,39.8865147 23.9662519,38.5228732 22.9585819,36.8183213 L33.3795807,36.8183213 Z M6.01704449,36.8183213 L16.4377024,36.8183213 C15.4300324,38.5228732 13.5057099,39.8865147 11.7770581,39.8865147 L10.6773479,39.8865147 C8.94903699,39.8865147 7.0247145,38.5228732 6.01704449,36.8183213 Z M73.783535,36.8183213 L84.2045338,36.8183213 C83.1965229,38.5228732 81.2722004,39.8865147 79.5435487,39.8865147 L78.4441793,39.8865147 C76.7158684,39.8865147 74.7915459,38.5228732 73.783535,36.8183213 Z M82.5369013,27.613741 L83.9117096,31.7046655 L72.5406511,31.7046655 L71.5588887,27.613741 L82.5369013,27.613741 Z M21.8169422,5.11365573 L68.1779444,5.11365573 L68.1779444,11.9318634 L21.8169422,11.9318634 L21.8169422,5.11365573 Z M7.68433612,27.613741 L18.6630305,27.613741 L17.6812681,31.7046655 L6.30986876,31.7046655 L7.68433612,27.613741 Z M39.5432078,78.7502983 L16.7035964,78.7502983 L16.7035964,47.5569983 C16.7035964,46.1446066 17.9618204,45.0001705 19.3737856,45.0001705 L37.1000511,45.0001705 C38.5120164,45.0001705 39.5432078,46.1446066 39.5432078,47.5569983 L39.5432078,78.7502983 Z M74.3139594,62.557737 C74.3139594,63.9701287 73.3884438,65.113883 71.9764786,65.113883 L51.5790012,65.113883 C50.1666951,65.113883 48.7472303,63.9701287 48.7472303,62.557737 L48.7472303,47.5989303 C48.7472303,46.1868795 50.0160218,45.0421024 51.4283279,45.0421024 L71.9215954,45.0414206 C72.599625,45.0414206 73.1811829,45.3107398 73.6604738,45.7900598 C74.1397648,46.2697207 74.3139594,46.9198368 74.3139594,47.5982485 L74.3139594,62.557737 Z" id="Shape"></path>
                </g>
            </g>
        </g>
    </g>
</svg>