<?xml version="1.0" encoding="utf-8"?>
<!-- Generator: Adobe Illustrator 21.1.0, SVG Export Plug-In . SVG Version: 6.00 Build 0)  -->
<svg version="1.1" id="Layer_1" xmlns="http://www.w3.org/2000/svg" xmlns:xlink="http://www.w3.org/1999/xlink" x="0px" y="0px"
	 viewBox="0 0 200 200" style="enable-background:new 0 0 200 200;" xml:space="preserve">
<style type="text/css">
	.st0{fill:none;stroke:#FFD200;stroke-width:3;stroke-miterlimit:10;}
	.st1{fill:#FFFFFF;}
</style>
<g>
	<circle class="st0" cx="100.5" cy="100.5" r="96"/>
	<g>
		<path class="st1" d="M100.5,42.2c-21.4,0-38.9,17.4-38.9,38.9c0,8.8,2.9,17.1,8.3,24c4,5.1,7.9,10.8,11.2,16.4l0.1,0.1v22.8
			c0,2.1,1.7,3.9,3.9,3.9h4.3c0.2,5.4,4.6,9.7,10.1,9.7h2.2c5.4,0,9.8-4.3,10.1-9.7h4.3c2.1,0,3.9-1.7,3.9-3.9v-22.8l0.1-0.1
			c3.3-5.7,7.1-11.2,11.2-16.4c5.4-6.9,8.3-15.2,8.3-24C139.4,59.6,121.9,42.2,100.5,42.2z M112.1,140.5H88.9v-5.6h23.3V140.5z
			 M112.1,129H88.9v-5.7h23.3V129z M125,100.3c-3.9,4.9-7.4,10-10.6,15.3h-11v0h-5.8v0h-11c-3.2-5.3-6.8-10.5-10.6-15.3
			c-4.4-5.5-6.7-12.2-6.7-19.2c0,0,0,0,0,0c0,0,0,0,0,0c0-17.2,14-31.2,31.2-31.2c17.2,0,31.2,14,31.2,31.2c0,0,0,0,0,0c0,0,0,0,0,0
			C131.7,88.1,129.4,94.8,125,100.3z"/>
		<path class="st1" d="M99.7,61C88.8,61,80,69.8,80,80.7s8.8,19.7,19.7,19.7s19.7-8.8,19.7-19.7S110.5,61,99.7,61z M99.7,95
			c-7.9,0-14.3-6.4-14.3-14.3s6.4-14.3,14.3-14.3s14.3,6.4,14.3,14.3S107.5,95,99.7,95z"/>
	</g>
</g>
</svg>
